<svg viewBox="0 0 300.79 122.8" xmlns="http://www.w3.org/2000/svg"><g fill="#fff"><path d="m113.9 25.6v13.3c0 5.6-3.2 9.8-10.2 9.8s-10.1-3.9-10.1-9.4v-13.7h5v12.9c0 3.4 1.4 5.9 5.1 5.9s5.1-2.5 5.1-6v-12.7z"/><path d="m136.2 35.5v12.7h-4.8v-10.6c0-2.5-1.3-3.6-3.4-3.6-1.9 0-3.8 1-4.9 3.1v11.1h-4.9v-18.3h4.9v2.7c1.5-1.9 3.6-3.1 6.4-3.1 4.1 0 6.7 2.6 6.7 6z"/><path d="m140.1 24.4c0-1.6 1.2-2.6 2.9-2.6 1.6 0 2.8 1 2.8 2.6s-1.2 2.6-2.8 2.6c-1.7 0-2.9-1-2.9-2.6zm.4 5.5h4.9v18.4h-4.9z"/><path d="m167.7 29.9-7.1 18.4h-5.9l-6.8-18.4h5.2l4.7 13.5 4.9-13.5z"/><path d="m186.6 40.1h-13.5c.2 2.7 2.1 4.5 5.3 4.5 1.8 0 3.5-.6 4.8-2.3l2.9 3.2c-2.4 2.4-5 3.2-8.1 3.2-5.9 0-9.7-3.8-9.7-9.7 0-5.3 3.6-9.6 9.3-9.6s9.3 4.1 9 10.7zm-13.4-3.3h8.4c-.5-2.3-2.1-3.2-4.1-3.2s-3.7 1-4.3 3.2z"/><path d="m200.8 29.4-.1 5.2c-2.8-.2-4.6.8-5.6 2.6v11h-4.9v-18.3h4.9v3.1c1.5-2.2 3.6-3.6 5.7-3.6z"/><path d="m202.4 45.1 3.4-3c1 1.8 2.4 2.6 4.6 2.6 1.9 0 3.2-.7 3.2-1.8 0-1.3-1.4-1.5-2.1-1.7l-2.8-.6c-2.9-.7-5.4-2.1-5.4-5.5s2.8-5.7 7.3-5.7c2.9 0 5.2 1 6.9 2.6l-2.6 3.5c-.9-1.2-2.5-2.1-4.6-2.1-1.5 0-2.4.5-2.4 1.5s1 1.4 2 1.6l2.9.7c1.9.5 5.5 1.6 5.5 5.4 0 3.6-2.9 6.1-7.9 6.1-2.9 0-5.6-.7-8-3.6z"/><path d="m221.2 24.4c0-1.6 1.2-2.6 2.9-2.6 1.6 0 2.8 1 2.8 2.6s-1.2 2.6-2.8 2.6c-1.7 0-2.9-1-2.9-2.6zm.4 5.5h4.9v18.4h-4.9z"/><path d="m102.2 90.5c-5.8 0-9.9-4.1-9.9-9.7s4.1-9.7 9.9-9.7 9.9 4.1 9.9 9.7-4 9.7-9.9 9.7zm4.9-9.7c0-3.1-1.8-5.3-4.8-5.3s-4.9 2.2-4.9 5.3 1.8 5.2 4.9 5.2 4.8-2.1 4.8-5.2z"/><path d="m121.6 70.8v.8h6v3.8h-6v14.6h-4.9v-14.6h-3.2v-3.8h3.2v-1.3c0-4.2 2.4-6.8 7.3-6.8 2.2 0 4.1.5 5.7 1.5l-1.6 4c-1.4-.9-2.6-1.2-3.7-1.2-2 0-2.8 1.2-2.8 3z"/><path d="m150.1 90.6c-6.9 0-11.7-4.9-11.7-11.9s4.8-12 11.6-12c4.2 0 7.8 2 9.7 5.1l-3.8 2.9c-1.2-2.3-3.2-3.6-5.8-3.6-3.8 0-6.4 2.9-6.4 7.7s2.6 7.5 6.5 7.5c3.2 0 5.4-1.9 5.6-4.6h-5.8v-4.1h11v2.5c0 6.5-4.5 10.5-10.9 10.5z"/><path d="m183.5 64.4v25.6h-4l-.3-2.2c-1.3 1.6-3.6 2.7-6.3 2.7-4.7 0-9-3.6-9-9.6s4-9.8 9.1-9.8c2.3 0 4.4.8 5.7 2.2v-8.9zm-4.9 16.4c0-3.2-1.8-5.3-4.8-5.3s-4.9 2.3-4.9 5.3 1.8 5.2 4.8 5.2 4.9-2 4.9-5.2z"/><path d="m203.1 76.9v13.1h-3.8l-.4-2c-1.4 1.6-3.4 2.4-5.5 2.4-3.5 0-5.9-2.1-5.9-5.3 0-4.4 4.4-5.8 10.7-6.9v-.2c0-1.8-1.2-2.4-2.9-2.4-2.1 0-3.9 1-5.4 2l-1.7-4.1c1.8-1.1 4.1-2.3 7.4-2.3 4.6 0 7.5 2 7.5 5.7zm-4.9 7.7v-3.1c-3.7.8-5.8 1.5-5.8 3.2 0 1.1.9 1.7 2.2 1.7 1.6 0 2.7-.6 3.6-1.8z"/><path d="m228.2 86.9 3.4-3c1 1.8 2.4 2.6 4.6 2.6 1.9 0 3.2-.7 3.2-1.8 0-1.3-1.4-1.5-2.1-1.7l-2.8-.6c-2.9-.7-5.4-2.1-5.4-5.5s2.8-5.7 7.3-5.7c2.9 0 5.2 1 6.9 2.6l-2.6 3.5c-.9-1.2-2.5-2.1-4.6-2.1-1.5 0-2.4.6-2.4 1.5 0 1 1 1.4 2 1.6l2.9.7c1.9.4 5.5 1.6 5.5 5.4 0 3.6-2.9 6.1-7.9 6.1-3-.1-5.7-.7-8-3.6z"/><path d="m255.4 82.9-3.1 3.1v4h-4.9v-26h4.9v15.8l8.2-8.2h6l-7.7 7.8 8 10.6h-6.1z"/><path d="m243.6 47.3c-1.4.9-3.5 1.4-5.4 1.4-3.7 0-6-1.9-6-6.1v-8.9h-2.9v-3.8h2.9v-4.2h4.8v4.2h5.1v3.8h-5.1v8.2c0 1.7 1 2.3 2.3 2.3 1 0 2.2-.4 3-1z"/><path d="m263.7 29.9v17.6c0 5.8-4.3 8.6-10.4 8.6-2.8 0-5.6-.7-7.9-2.3l2.3-3.9c1.7 1.2 3.6 1.8 5.6 1.8 3.5 0 5.6-1.4 5.6-4.7v-.6c-1.1 1.5-2.6 2.3-4.8 2.3-4.7 0-8.4-3.6-8.4-9.1v-9.6h5v9.6c0 2.7 1.6 4.7 4.1 4.7s4-1.9 4-4.7v-9.6z"/><path d="m218.7 71.2c-2.8 0-4.9 1.3-6.4 3.1v-2.7h-4.9v18.4h4.9v-11.1c1.1-2.1 3-3.1 4.9-3.1 2.1 0 3.4 1.1 3.4 3.6v10.6h4.8v-12.7c0-3.4-2.6-6.1-6.7-6.1zm-.6-7.9-3 5.7h3.6l4.7-5.7z"/><path d="m67.1 7v-7h-13.5v7h-8.6v-7h-14v7h-8.6v-7h-13.4v7h5.2v6h47.8v-6z"/><path d="m52 41.3v-7h-7v7h6.9v6.9.1h7v-7z"/><path d="m45 41.3h-7v7h6.9v9.2c-2.9 1-5.8 1.2-8.7 1.2-3.8 0-7-3.1-7-7v-17.4h-7v17.4c0 7.7 6.2 13.9 13.9 13.9 6.1.3 11.7-1.4 15.7-3.5v-5.2l.1-8.7h-6.9z"/><path d="m52 86.5v-6.9h-7v6.9h-7v7h6.9s0 5.6.1 5.8c-2.3.8-4.6 1.2-7 1.2-5.8 0-10.4-4.7-10.4-10.4s4.6-10.5 10.4-10.5v-7c-9.6 0-17.4 7.8-17.4 17.4s7.8 17.4 17.4 17.4c5.7 0 10.4-1.7 13.9-3.5v-10.4h-6.9v-6.9h6.9v6.9h7v-7z"/><path d="m38 122.8c-10.2 0-19.7-3.9-26.9-11.1-7-7.2-11-16.8-11-26.9v-62.4h76v62.3c0 10.2-3.9 19.7-11.1 26.9-7.3 7.2-16.9 11.2-27 11.2zm-34.9-97.4v59.4c0 19.3 15.7 35 35 35s35-15.7 35-35v-59.4z"/></g></svg>