<svg xmlns="http://www.w3.org/2000/svg" width="150.354" height="32.693" viewBox="0 0 150.354 32.693">
  <g id="Group_610" data-name="Group 610" transform="translate(-386 -797.307)">
    <g id="Group_44" data-name="Group 44" transform="translate(145.371 480.836)">
      <path id="Path_117" data-name="Path 117" d="M353.361,326.217H355v4.816c0,1.951.432,2.29,1.661,2.29,1.086,0,1.589-.4,1.589-2.29v-4.816h1.648v4.816c0,3.773-1.823,3.8-3.237,3.8-1.59,0-3.3.094-3.3-3.8Z" transform="translate(-42.372 -5.678)" fill="#fff"/>
      <path id="Path_118" data-name="Path 118" d="M371.944,326.217h1.66l3.389,5.528v-5.528h1.636v8.555h-1.636l-3.4-5.468v5.468h-1.648Z" transform="translate(-53.198 -5.678)" fill="#fff"/>
      <rect id="Rectangle_7" data-name="Rectangle 7" width="1.637" height="8.555" transform="translate(327.183 320.539)" fill="#fff"/>
      <path id="Path_119" data-name="Path 119" d="M398.595,326.217l1.893,6.346,1.542-6.346h1.754l-.6,2.208,1.356,4.174,1.564-6.382h1.731l-2.349,8.555H403.6l-1.157-3.505-1,3.505h-1.893l-2.688-8.555Z" transform="translate(-67.045 -5.678)" fill="#fff"/>
      <path id="Path_120" data-name="Path 120" d="M424.869,327.992a1.637,1.637,0,0,1,1.859-1.776s3.015.082,3.763.187v1.356h-3.377c-.608,0-.608.339-.608.654v1.333l3.46.115v1.358l-3.46.1v1.332c0,.619.385.608.725.608h3.26v1.343c-.666.095-3.647.2-3.647.2-.759.036-1.975-.14-1.975-1.716Z" transform="translate(-83.019 -5.677)" fill="#fff"/>
      <path id="Path_121" data-name="Path 121" d="M440.537,326.217h3.741c1.343,0,2.336.619,2.336,2.665,0,2.116-.888,2.372-1.367,2.525l1.625,3.365h-1.847l-1.413-3.236-1.438-.165v3.4h-1.636Zm3.588,3.868c.561,0,.842-.163.842-1.2,0-.97-.329-1.216-.842-1.216h-1.939v2.419Z" transform="translate(-91.913 -5.678)" fill="#fff"/>
      <path id="Path_122" data-name="Path 122" d="M457.3,328.254c0-1.695,1.006-2.186,2.315-2.21a13.217,13.217,0,0,1,3.307.339v1.286c-.748-.071-2.443-.116-2.863-.116-.713-.012-1.122.033-1.122.829v.421c0,.678.257.818.912.818h1.355c1.681,0,2.022,1.321,2.022,2.267v.573c0,1.94-1.2,2.3-2.361,2.3a11.572,11.572,0,0,1-3.308-.351v-1.286c.468.048,1.894.129,2.981.129.491,0,1.051-.081,1.051-.737v-.455c0-.49-.14-.806-.771-.806h-1.308a2,2,0,0,1-2.211-2.267Z" transform="translate(-101.45 -5.576)" fill="#fff"/>
      <path id="Path_123" data-name="Path 123" d="M474.735,326.217l1.672,4.1,1.833-4.1h1.776l-2.815,5.9v2.653h-1.636v-2.653l-2.606-5.9Z" transform="translate(-110.321 -5.678)" fill="#fff"/>
      <path id="Path_124" data-name="Path 124" d="M491.461,326.217h6.322v1.507H495.41v7.047h-1.635v-7.047h-2.314Z" transform="translate(-120.853 -5.678)" fill="#fff"/>
      <path id="Path_125" data-name="Path 125" d="M508.717,327.992a1.637,1.637,0,0,1,1.859-1.776s3.014.082,3.763.187v1.356h-3.378c-.609,0-.609.339-.609.654v1.333l3.461.115v1.358l-3.461.1v1.332c0,.619.386.608.726.608h3.261v1.343c-.666.095-3.647.2-3.647.2-.758.036-1.975-.14-1.975-1.716Z" transform="translate(-130.441 -5.677)" fill="#fff"/>
      <path id="Path_126" data-name="Path 126" d="M524.008,326.217h6.324v1.507h-2.371v7.047h-1.638v-7.047h-2.315Z" transform="translate(-139.349 -5.678)" fill="#fff"/>
      <path id="Path_127" data-name="Path 127" d="M353.546,380.645l1.206,3.245,1.061-3.245h.616l-.416,1.307.892,1.938,1.245-3.245h.623l-1.56,4.084h-.569l-.908-2-.669,2h-.614l-1.53-4.084Z" transform="translate(-42.116 -37.387)" fill="#fff"/>
      <path id="Path_128" data-name="Path 128" d="M373.39,376.944h.569V381.6c0,.408.254.4.478.4h2.351v.57h-2.351c-.508,0-1.046-.1-1.046-.969Z" transform="translate(-54.04 -35.23)" fill="#fff"/>
      <path id="Path_129" data-name="Path 129" d="M383.091,380.645h.569v2.846a.655.655,0,0,0,.692.737,2.98,2.98,0,0,0,1.507-.437v-3.145h.569v4.084h-.4l-.169-.477a2.862,2.862,0,0,1-1.507.546,1.237,1.237,0,0,1-1.261-1.307Z" transform="translate(-59.692 -37.386)" fill="#fff"/>
      <path id="Path_130" data-name="Path 130" d="M393.32,375.967h.555v2.2a4.758,4.758,0,0,1,1.515-.307c1.16,0,1.345,1.075,1.345,2.12,0,.939-.231,2.069-1.345,2.069a3.494,3.494,0,0,1-1.507-.5l-.154.454h-.409Zm2.07,5.512c.5,0,.776-.5.776-1.5,0-1.252-.284-1.552-.776-1.552a5.3,5.3,0,0,0-1.507.2v2.5a3.855,3.855,0,0,0,1.507.353" transform="translate(-65.651 -34.661)" fill="#fff"/>
      <path id="Path_131" data-name="Path 131" d="M403.489,376.005h.569v4.567c0,.669.177.822.438.884,0,0,.63.162.683.162v.407H404.5c-.592,0-1.015-.369-1.015-1.453Z" transform="translate(-71.576 -34.683)" fill="#fff"/>
      <path id="Path_132" data-name="Path 132" d="M408.941,377.8a.171.171,0,0,1,.184-.192h.384a.172.172,0,0,1,.176.192v.416a.162.162,0,0,1-.176.177h-.384a.172.172,0,0,1-.184-.177Zm.076,1.076h.57v4.084h-.57Z" transform="translate(-74.752 -35.617)" fill="#fff"/>
      <path id="Path_133" data-name="Path 133" d="M412.735,380.549h.4l.169.478a2.86,2.86,0,0,1,1.506-.546,1.237,1.237,0,0,1,1.261,1.307v2.846H415.5v-2.846a.656.656,0,0,0-.693-.737,3,3,0,0,0-1.506.437v3.146h-.57Z" transform="translate(-76.962 -37.291)" fill="#fff"/>
      <path id="Path_134" data-name="Path 134" d="M422.654,377.8a.171.171,0,0,1,.183-.192h.384a.174.174,0,0,1,.177.192v.416a.163.163,0,0,1-.177.177h-.384a.172.172,0,0,1-.183-.177Zm.076,1.076h.569v4.084h-.569Z" transform="translate(-82.741 -35.617)" fill="#fff"/>
      <path id="Path_135" data-name="Path 135" d="M427.988,380.571c.961,0,1.561.093,1.561,1.447,0,.591-.315.938-1.053.938h-1.723c0,.961.177,1.2.777,1.2a13.759,13.759,0,0,0,1.921-.076v.43a7.037,7.037,0,0,1-1.921.216c-1.039,0-1.345-.5-1.345-2.1,0-1.822.523-2.053,1.783-2.053m.508,1.823c.338,0,.483-.123.483-.376,0-.807-.154-.877-.983-.877-.869,0-1.222.007-1.222,1.253Z" transform="translate(-84.809 -37.343)" fill="#fff"/>
      <path id="Path_136" data-name="Path 136" d="M353.2,350.541h3.681c1.075,0,2.373.339,2.373,2.642,0,2.606-1.392,2.793-2.373,2.758-.467-.024-1.988-.211-2.045-.235v3.39H353.2Zm3.552,3.95c.515,0,.854-.267.854-1.3-.012-1-.444-1.2-.854-1.2h-1.916v2.5Z" transform="translate(-42.278 -19.849)" fill="#fff"/>
      <path id="Path_137" data-name="Path 137" d="M369.884,350.541h3.739c1.344,0,2.338.62,2.338,2.666,0,2.115-.888,2.372-1.367,2.523l1.624,3.367h-1.846l-1.414-3.238-1.438-.163v3.4h-1.635Zm3.587,3.868c.561,0,.842-.163.842-1.2,0-.971-.327-1.215-.842-1.215h-1.939v2.418Z" transform="translate(-51.998 -19.849)" fill="#fff"/>
      <path id="Path_138" data-name="Path 138" d="M386.653,357.588l3.915-5.539h-3.915V350.54h5.889v1.509l-3.728,5.539h3.728V359.1h-5.889Z" transform="translate(-62.103 -19.848)" fill="#fff"/>
      <path id="Path_139" data-name="Path 139" d="M404.265,350.541l1.67,4.1,1.836-4.1h1.776l-2.816,5.9V359.1h-1.637v-2.654l-2.606-5.9Z" transform="translate(-71.495 -19.849)" fill="#fff"/>
      <path id="Path_140" data-name="Path 140" d="M421.26,350.541H425c1.344,0,2.339.62,2.339,2.666,0,2.115-.89,2.372-1.369,2.523l1.625,3.367h-1.848l-1.414-3.238L422.9,355.7v3.4H421.26Zm3.588,3.868c.562,0,.842-.163.842-1.2,0-.971-.328-1.215-.842-1.215h-1.94v2.418Z" transform="translate(-82.616 -19.849)" fill="#fff"/>
      <path id="Path_141" data-name="Path 141" d="M441.4,350.4c2.022,0,3.436.387,3.436,4.394,0,3.776-1.332,4.266-3.436,4.266s-3.435-.374-3.435-4.266c0-4.007,1.472-4.394,3.435-4.394m0,7.153c1.38,0,1.8-.456,1.8-2.759,0-2.663-.5-2.885-1.8-2.885-1.262,0-1.8.164-1.8,2.885,0,2.338.339,2.759,1.8,2.759" transform="translate(-92.526 -19.766)" fill="#fff"/>
      <path id="Path_142" data-name="Path 142" d="M457.025,350.54h3.635c2.455,0,2.97,2.2,2.97,4.313,0,2.513-.889,4.243-2.97,4.243h-3.635Zm3.506,7.095c1.063,0,1.461-1.075,1.461-2.793,0-2.29-.549-2.851-1.461-2.851h-1.87v5.644Z" transform="translate(-103.817 -19.848)" fill="#fff"/>
      <path id="Path_143" data-name="Path 143" d="M475.4,350.541h1.658l3.389,5.528v-5.528h1.636V359.1h-1.636l-3.4-5.469V359.1H475.4Z" transform="translate(-114.709 -19.849)" fill="#fff"/>
      <rect id="Rectangle_8" data-name="Rectangle 8" width="1.635" height="8.556" transform="translate(368.521 330.693)" fill="#fff"/>
      <path id="Path_144" data-name="Path 144" d="M503.7,350.318a10.031,10.031,0,0,1,2.98.386v1.285c-.012,0-1.449-.163-2.594-.163-1.2,0-1.661.269-1.661,2.862,0,1.917.316,2.841,1.661,2.841,1.226,0,2.594-.093,2.594-.093v1.274a9.4,9.4,0,0,1-2.98.327c-2.163-.024-2.91-1.66-2.91-4.372,0-2.734.583-4.347,2.91-4.347" transform="translate(-129.742 -19.719)" fill="#fff"/>
      <path id="Path_145" data-name="Path 145" d="M516.628,357.588l3.916-5.539h-3.916V350.54h5.891v1.509l-3.727,5.539h3.727V359.1h-5.891Z" transform="translate(-139.316 -19.848)" fill="#fff"/>
      <path id="Path_146" data-name="Path 146" d="M534.243,350.541l1.673,4.1,1.834-4.1h1.776l-2.817,5.9V359.1h-1.637v-2.654l-2.606-5.9Z" transform="translate(-148.544 -19.849)" fill="#fff"/>
      <path id="Path_147" data-name="Path 147" d="M282.023,322.727c2.259,1.888,3.851,1.814,5.244,3.767,0-1.886-.211-4.659-1.155-5.864-.921-1.178-3.585-1.784-5.477-4.159,0,1.232-.162,4.961,1.389,6.256" transform="translate(0)" fill="#fff"/>
      <path id="Path_148" data-name="Path 148" d="M282.023,336.619c2.259,1.887,3.851,1.813,5.244,3.766,0-1.885-.211-4.659-1.155-5.864-.921-1.177-3.585-1.784-5.477-4.159,0,1.234-.162,4.962,1.389,6.258" transform="translate(0 -8.092)" fill="#fff"/>
      <path id="Path_149" data-name="Path 149" d="M282.023,350.5c2.259,1.888,3.851,1.812,5.244,3.766,0-1.885-.211-4.658-1.155-5.864-.921-1.177-3.585-1.784-5.477-4.157,0,1.232-.162,4.961,1.389,6.256" transform="translate(0 -16.179)" fill="#fff"/>
      <path id="Path_150" data-name="Path 150" d="M293.747,361.684v4.647a2.319,2.319,0,0,1-2.318,2.272,2.157,2.157,0,0,1-2.223-2.1c0-.021,0-.043,0-.064v-.924c-1.36-1.926-3-1.962-5.2-3.829v4.6H284a7.431,7.431,0,0,0,14.42,2.523,6.556,6.556,0,0,0,.44-2.467v-.925c-1.361-1.925-2.915-1.867-5.114-3.733" transform="translate(-1.964 -26.34)" fill="#fff"/>
      <path id="Path_151" data-name="Path 151" d="M318.95,328.927a5.386,5.386,0,0,0-2.176-2.014,7.22,7.22,0,0,0-3.435-.768h-8.986a1.342,1.342,0,0,1,.094.113c.867,1.128,1.1,3.635,1.129,5.5l0,.005,0,.008v5.784h0v2.407c.018.019.034.038.053.055,2.16,1.842,3.721,1.821,5.063,3.641v-.467h0v-6.472h2.812a7.24,7.24,0,0,0,3.372-.726,5.085,5.085,0,0,0,2.1-1.9,4.859,4.859,0,0,0,.7-2.527,5.107,5.107,0,0,0-.733-2.633m-4.7,3.536a1.374,1.374,0,0,1-1.087.448H310.7v-3.129H313a1.547,1.547,0,0,1,1.216.489,1.661,1.661,0,0,1,.436,1.14,1.542,1.542,0,0,1-.395,1.051" transform="translate(-13.82 -5.636)" fill="#fff"/>
    </g>
    <path id="Path_542" data-name="Path 542" d="M22.456,13.414a2.409,2.409,0,0,0,.558-2.079,1.11,1.11,0,0,1-.71.406l-.152.051-.1-.152a.945.945,0,0,1-.2-.659,1.761,1.761,0,0,1-.964.609c.2,1.775-2.181,1.471-2.181,1.471a4.5,4.5,0,0,1-.3,1.521C19.109,14.631,21.34,14.53,22.456,13.414Zm-.964-2.434a.305.305,0,0,1-.2-.051c-.1-.051-.254-.1-.355-.152a1.344,1.344,0,0,1-.254-.3.955.955,0,0,1-.1-.406,1.193,1.193,0,0,1,.1-.406,1,1,0,0,1,.456-.456,1.056,1.056,0,0,1,.152-.659,1.185,1.185,0,0,1,.609-.507,1.12,1.12,0,0,1,.811,0,1.381,1.381,0,0,1,.507.406h.051a2.059,2.059,0,0,0,.71-2.079A3.2,3.2,0,0,0,22.2,7.43a2.484,2.484,0,0,1,2.13-1.572,3.136,3.136,0,0,1,.051.761,5.674,5.674,0,0,0,2.13-2.688c-1.826.2-7.556,1.674-7.4,5.832A1.448,1.448,0,0,0,21.492,10.98Zm1.268,4.463a1.543,1.543,0,0,1-.254.355l-.152.152a2.865,2.865,0,0,0,2.231,1.623,3.918,3.918,0,0,0-.862-2.586,1.2,1.2,0,0,1-.456.3C23.065,15.341,22.963,15.392,22.76,15.442Zm1.623-7.911a3.237,3.237,0,0,1,1.623-.3,1.231,1.231,0,0,1,.1.507A3.563,3.563,0,0,0,27.73,5.2,4.256,4.256,0,0,0,24.383,7.531Zm-.71.913a.818.818,0,0,1,.456.152h.1l.051.051.1.1a.387.387,0,0,1,.1.254,1.116,1.116,0,0,1,.051.406A2.2,2.2,0,0,0,25.8,7.531,4.106,4.106,0,0,0,23.673,8.444Zm-2.029,1.724a.521.521,0,0,0,.355.3.743.743,0,0,1,.1-.2.678.678,0,0,1-.051-.254A.475.475,0,0,0,21.645,10.168ZM27.02,9.56a2.271,2.271,0,0,0-1.014-.2,2.873,2.873,0,0,0-1.369.3c.1.1.152.2.254.3a1.246,1.246,0,0,1,.254.761,1.037,1.037,0,0,1,0,.558,5.6,5.6,0,0,0,1.166-.761A2.376,2.376,0,0,0,27.02,9.56Zm-2.231,3.6a3.043,3.043,0,0,0,2.13-.3c.051-.051.1-.1.152-.1l.051-.051a1.905,1.905,0,0,0-.71-.811,2.867,2.867,0,0,0-1.268-.254,1.107,1.107,0,0,1-.152.254l-.2.2v.051a2.026,2.026,0,0,1,.1.964C24.789,13.11,24.789,13.16,24.789,13.16Zm1.521,2.231c-.051-.913-1.217-1.775-1.572-2.029-.051.1-.051.152-.1.254s-.1.152-.152.254l-.152.152a1.8,1.8,0,0,1-.2.456,1.06,1.06,0,0,1-.2.3A2.3,2.3,0,0,0,26.31,15.392Zm-6.238,1.065a2.658,2.658,0,0,1-.507.558c-.051,0-.051.051-.1.051a3.441,3.441,0,0,0,1.369,2.688,1.238,1.238,0,0,1,.2-1.166A3.725,3.725,0,0,1,20.072,16.457Zm6.035-8.469A2.535,2.535,0,0,1,25.7,9c3.043-.71,2.992-2.333,2.992-2.333a3.63,3.63,0,0,1-.964.659C26.716,7.785,26.107,7.988,26.107,7.988ZM22.456,21.579a9.4,9.4,0,0,1-.761-2.637l-.406-.2A2.194,2.194,0,0,0,22.456,21.579Zm-.71-3.043A3.887,3.887,0,0,0,22.2,15.95c-.051,0-.051.051-.1.051a1.482,1.482,0,0,1-.456.1h-.406a1.209,1.209,0,0,1-.558.3c-.1,0-.152.051-.254.051A3.421,3.421,0,0,0,21.746,18.536ZM26.31,9.053a2.362,2.362,0,0,1,1.014.3l.1.051-.051.1a3.359,3.359,0,0,1-.558,1.014,3.581,3.581,0,0,0,2.84-1.471A4.734,4.734,0,0,0,26.31,9.053Zm4.057,6.542a3.057,3.057,0,0,0-1.217-1.42,6.68,6.68,0,0,0-2.181-.913,3.375,3.375,0,0,1-1.166.406,3.19,3.19,0,0,1,.964,1.572A6.632,6.632,0,0,0,30.367,15.595Zm-.2-3.195c-.152.152-.456.254-1.116.254-.558,0-1.319-.051-1.521-.051a1.041,1.041,0,0,1-.254.355,3.5,3.5,0,0,0,2.231.254A.729.729,0,0,0,30.164,12.4ZM18.45,14.935h-.1a6.536,6.536,0,0,1-.811,1.623l.051.051c.051.051.1.051.152.1.1.051.254.1.355.152a1.612,1.612,0,0,0,.71.1,1.287,1.287,0,0,0,1.116-.71l.051-.1.152.051a2.2,2.2,0,0,1,.254.051.644.644,0,0,0,.3-.051.981.981,0,0,0,.456-.254l.051-.051H21.7a.733.733,0,0,0,.355-.1.989.989,0,0,0,.507-.507l.051-.1h.1l.456-.152a1.1,1.1,0,0,0,.406-.254,1.318,1.318,0,0,0,.456-.811v-.051l.051-.051.152-.152a.7.7,0,0,0,.152-.2.818.818,0,0,0,.152-.456,1.62,1.62,0,0,0-.152-.964l-.051-.1.1-.1c.051-.051.152-.1.254-.2.051-.1.1-.152.152-.254a.848.848,0,0,0,.051-.609,1.562,1.562,0,0,0-.254-.609,1.438,1.438,0,0,0-.456-.507l-.1-.051V9.2c0-.051-.051-.1-.051-.152L23.977,9l-.051-.051a.72.72,0,0,0-.3-.1.94.94,0,0,0-.355.1L23.115,9l-.1-.1a1.75,1.75,0,0,0-.456-.406.549.549,0,0,0-.558,0,.809.809,0,0,0-.456.355,1.189,1.189,0,0,0-.1.609V9.61l-.152.051a.789.789,0,0,0-.406.3.592.592,0,0,0,0,.507.526.526,0,0,0,.406.3.644.644,0,0,0,.3.051h.1a1,1,0,0,1-.406-.609.733.733,0,0,1,.558-.355A1.213,1.213,0,0,1,22,9l.1-.1h.152a1.2,1.2,0,0,1,.811.507.733.733,0,0,1,.659-.051.993.993,0,0,1,.051.659,1.1,1.1,0,0,1,.609.558l.1.152-.1.152a.966.966,0,0,1-.761.355h-.355a2.8,2.8,0,0,1-.558,2.586C21.492,14.834,19.21,14.935,18.45,14.935Zm8.672-4.158a1.645,1.645,0,0,0-1.318.558,2.514,2.514,0,0,1,1.623,1.014,4.329,4.329,0,0,0,3.043-.913A6.942,6.942,0,0,0,27.122,10.777ZM24.789,15.8a2.531,2.531,0,0,1,.1,1.978c.456.862,2.181,3.3,3.55,3.5,0-2.333-.609-3.347-2.434-5.376A2.632,2.632,0,0,1,24.789,15.8Zm1.927-.254a.753.753,0,0,1-.355.254A3.052,3.052,0,0,0,28.9,17.42a1.422,1.422,0,0,0,1.471-.862C29.3,16.913,26.716,15.544,26.716,15.544ZM25.5,19.4a3,3,0,0,0-.609-.811,6.462,6.462,0,0,0,.1,1.166c.051.3.609,2.181,2.231,1.623C27.223,21.376,26.259,21.122,25.5,19.4ZM23.47,9.763a.394.394,0,0,0,0-.355.381.381,0,0,0-.355.152.724.724,0,0,1,.1.2A.4.4,0,0,1,23.47,9.763Zm.659,13.693a10.948,10.948,0,0,0,.2-5.528,3.68,3.68,0,0,1-1.674-.811,3.162,3.162,0,0,1-.609,1.876C22.1,19.3,23.318,22.948,24.129,23.455ZM22.253,10.422c-.3.761,0,1.065,0,1.065a1.256,1.256,0,0,0,.761-.71A.711.711,0,0,0,22.253,10.422Zm1.876.051a1.229,1.229,0,0,0-.862-.558.758.758,0,0,0-.152.811C23.876,10.828,24.129,10.473,24.129,10.473ZM22.2,9c-.254.3,0,1.217,0,1.217.507.2.862-.355.862-.355C22.71,9,22.2,9,22.2,9Zm-7.81,12.07a9.959,9.959,0,0,0-.507-3.448c-1.572-.254-2.13,1.319-2.333,2.333-.1.507-.3.913-.609,1.014,0,0,.152.152.3.1A3.887,3.887,0,0,1,9.93,22.745a3.832,3.832,0,0,0,1.927-.1c.051.051.2,1.42,1.318,1.724a1.594,1.594,0,0,1-.2-1.014.666.666,0,0,0,.456.152A1.78,1.78,0,0,1,14.393,21.072ZM9.828,27.563c-.254.1-.355.254-.558.051-.507-.558,2.637-3.753,2.739-3.854-.254-.254-.71.355-1.065.152-.1-.051-.1-.355-.1-.355l-.456.456c-.2.2-.456.355-.1.406.2,0,.2.152,0,.2-.2,0-.2-.051-.456.152-.3.3-.051.2.051.2.254,0,.051.2-.1.254a.512.512,0,0,0-.406.152c-.3.3-.507.456,0,.355.2-.051.1.2-.1.2-.456,0-.761.355-.71.507.051.1.2.051.406,0,.1,0,.152.1.051.1-.609.1-.71.507-1.014.507-.2,0-.406-.254-1.014-.3a2.751,2.751,0,0,0-.913,0c-.254-.355-1.065-.406-1.217.152a.636.636,0,0,0,.051.456.78.78,0,0,1-.3-.2.9.9,0,0,0-.152.862,1.219,1.219,0,0,1,.913-.355.7.7,0,0,0,.558-.254,2.52,2.52,0,0,0,1.572.051c-.254.355-1.217.3-1.876.71a.777.777,0,0,0-.862.254c-.2.406-.1.71.152.862-.051-.051-.2-.051-.355-.051-.051.355.152.609.609.71,0,0-.2-.456.254-.558.1,0,.152-.051.2-.051a.823.823,0,0,0,.406-.558,3.661,3.661,0,0,0,2.029-.964c-.3.659-.913.659-1.268,1.369a.633.633,0,0,0-.71.507.686.686,0,0,0,.811.761,1.534,1.534,0,0,1-.507.1.828.828,0,0,0,.862.152.746.746,0,0,1-.254-.3.263.263,0,0,0,.2-.1.728.728,0,0,0,.1-.761,4.628,4.628,0,0,0,1.014-.964c.152-.3.406-.456.456-.355,0,.1-.2.2-.152.3,0,.152.558,0,.71,0a.6.6,0,0,0,.964.456.476.476,0,0,1-.406-.152.586.586,0,0,0,.507-.507C10.538,27.816,10.285,27.461,9.828,27.563Zm1.319-4.513a1.59,1.59,0,0,0-.051.609s.456,0,.609-.2a.717.717,0,0,1-.152-.507A1.477,1.477,0,0,1,11.147,23.049Zm4.97-18.307c-.254-.1-.3,0-.406.1a.89.89,0,0,1-.254.2.579.579,0,0,0,.152-.355c-.152-.051-.254-.1-.406-.152a.282.282,0,0,0-.355.152A.239.239,0,0,0,14.9,5a.605.605,0,0,1-.254-.659.19.19,0,0,0-.3,0c-.1.1-.152.051-.1,0,.2-.254.558-.254.964-.051a4.07,4.07,0,0,0,1.521.3,3.933,3.933,0,0,0,.456-.051C17.131,4.691,16.776,4.945,16.117,4.742Zm1.319-1.014s0,.1-.3.2c-.507.152-2.13-.507-3.043-.051a1.18,1.18,0,0,0-.456.558.177.177,0,0,0,.051.1A1.073,1.073,0,0,1,14.7,5.4c.609-.1,2.029.558,1.521,1.674-.1,0-.862-.456-1.217-.2.811.254.659,1.319.456,1.572a2.611,2.611,0,0,1-1.014.913c.051.051.254.558,1.116.2a1.067,1.067,0,0,1-.761.254c-.913,1.319-1.572,1.166-1.572,1.166a1.108,1.108,0,0,0,1.42.456c-1.014.456-1.471.254-1.471.254-.558.558-.254,1.876-.254,1.876s.964-.3,1.065-.913a2.223,2.223,0,0,0,.71,1.42c.71-.254.913-1.876.913-1.876s.406,1.319.913,1.471a2.064,2.064,0,0,0,.71-1.268s.254.964,1.014,1.116c0,0,.3-1.065-.3-1.572a.767.767,0,0,0,.659-.659c-1.014-.3-1.268-1.927-1.014-2.586,0,.761.456.862.456.862a5.7,5.7,0,0,1,.1-2.536,2.088,2.088,0,0,0-.3-1.674A1.262,1.262,0,0,1,18.2,5.2a.558.558,0,0,0-.71-.3.806.806,0,0,0,.609-.964,6.69,6.69,0,0,1-.659.152C17.638,3.931,17.435,3.728,17.435,3.728ZM6.228,17.775a2.531,2.531,0,0,1,.1-1.978,2.671,2.671,0,0,1-1.217.1c-1.775,2.029-2.434,3.043-2.434,5.376C4.047,21.122,5.771,18.637,6.228,17.775Zm-.1,1.978a6.164,6.164,0,0,0,.1-1.166,2.233,2.233,0,0,0-.609.811c-.71,1.724-1.674,1.978-1.674,1.978C5.568,21.934,6.076,20.057,6.126,19.753ZM4.3,10.523a2.475,2.475,0,0,1-.558-1.014l-.051-.1.1-.051a1.714,1.714,0,0,1,1.014-.3,4.734,4.734,0,0,0-3.347,0A3.646,3.646,0,0,0,4.3,10.523Zm.71-2.84a1.572,1.572,0,0,1,.1-.507,3.287,3.287,0,0,1,1.623.3A4.382,4.382,0,0,0,3.388,5.1,3.609,3.609,0,0,0,5.011,7.683ZM5.416,9a1.912,1.912,0,0,1-.406-1.014s-.609-.2-1.623-.659a4.673,4.673,0,0,1-.964-.659C2.475,6.669,2.374,8.292,5.416,9Zm-.659,6.8a.753.753,0,0,1-.355-.254c.051,0-2.586,1.369-3.651.964a1.422,1.422,0,0,0,1.471.862A2.9,2.9,0,0,0,4.757,15.8ZM3.743,12.349a2.514,2.514,0,0,1,1.623-1.014,1.77,1.77,0,0,0-1.319-.558c-1.217-.1-3.144.355-3.3.659C.9,11.842,2.221,12.349,3.743,12.349ZM6.735,6.72a1.205,1.205,0,0,1,.051-.761,2.431,2.431,0,0,1,2.13,1.572A3.2,3.2,0,0,0,7.141,6.466,1.96,1.96,0,0,0,7.8,8.495h.1a1.986,1.986,0,0,1,.507-.406,1.12,1.12,0,0,1,.811,0,1.016,1.016,0,0,1,.609.507,1.561,1.561,0,0,1,.152.659,1,1,0,0,1,.456.456.956.956,0,0,1,.1.406v.2c0,.051-.051.152-.051.2a.519.519,0,0,1-.254.3.548.548,0,0,1-.355.152c-.051,0-.1.051-.2.051a1.4,1.4,0,0,0,2.333-1.116c.152-4.159-5.578-5.629-7.4-5.832A5.836,5.836,0,0,0,6.735,6.72Zm3.5,4.919a2.426,2.426,0,0,1-.964-.609.945.945,0,0,1-.2.659l-.1.152-.152-.051a1.635,1.635,0,0,1-.71-.406,2.409,2.409,0,0,0,.558,2.079c1.116,1.166,3.449,1.217,4.057,1.217a6.155,6.155,0,0,1-.2-1.521S10.031,13.414,10.234,11.639Zm-4.311-.355v-.558a4.46,4.46,0,0,1,.254-.761,1.344,1.344,0,0,1,.254-.3,2.807,2.807,0,0,0-1.319-.3,2.418,2.418,0,0,0-1.014.2,2.14,2.14,0,0,0,.659.964A5.6,5.6,0,0,0,5.924,11.284Zm5.731,5.781c-.051-.051-.1-.051-.152-.1a1.439,1.439,0,0,1-.456-.507,3.406,3.406,0,0,1-.964,2.13,1.624,1.624,0,0,1,.2,1.166A3.355,3.355,0,0,0,11.654,17.065Zm-1.775-.913H9.473a1.48,1.48,0,0,1-.456-.1c-.051,0-.051-.051-.1-.051a3.887,3.887,0,0,0,.456,2.586,3.635,3.635,0,0,0,1.319-2.079.457.457,0,0,1-.254-.051A1.209,1.209,0,0,1,9.879,16.152Zm-5.528-.964a3.47,3.47,0,0,1,.964-1.572,3.83,3.83,0,0,1-1.166-.406,6.68,6.68,0,0,0-2.181.913,2.8,2.8,0,0,0-1.217,1.42A5.761,5.761,0,0,0,4.351,15.189Zm-.456-2.181a.908.908,0,0,1-.254-.355c-.051,0-.913.051-1.572.051A1.915,1.915,0,0,1,.954,12.45a.89.89,0,0,0,.71.862A3.927,3.927,0,0,0,3.895,13.008Zm5.629-4.26a.809.809,0,0,0-.456-.355,1.037,1.037,0,0,0-.558,0,.9.9,0,0,0-.456.406l-.1.1L7.8,8.85a.94.94,0,0,0-.355-.1.72.72,0,0,0-.3.1.506.506,0,0,0-.2.254.433.433,0,0,0,0,.355v.1l-.1.051a2.284,2.284,0,0,0-.456.507,3.1,3.1,0,0,0-.254.609,1.248,1.248,0,0,0,.051.609,1.109,1.109,0,0,0,.152.254.507.507,0,0,0,.254.2l.1.1-.051.1a2.033,2.033,0,0,0-.152.964.818.818,0,0,0,.152.456c.051.051.1.152.152.2l.152.152.051.051v.051a1.318,1.318,0,0,0,.456.811,1.1,1.1,0,0,0,.406.254l.456.152h.1l.051.1a1.349,1.349,0,0,0,.507.558.941.941,0,0,0,.355.1h.507l.051.051a.605.605,0,0,0,.456.254c.1,0,.2.051.3,0a.38.38,0,0,0,.254-.051l.152-.051.051.1a1.987,1.987,0,0,0,.406.507,1.113,1.113,0,0,0,.609.254,1.46,1.46,0,0,0,.659-.051,1.875,1.875,0,0,0,.558-.254,5.875,5.875,0,0,1-.659-1.724h-.2c-.761,0-3.043-.1-4.209-1.319A2.662,2.662,0,0,1,7.7,10.98H7.343a1.017,1.017,0,0,1-.761-.355l-.1-.152.1-.152a1.261,1.261,0,0,1,.609-.558A.993.993,0,0,1,7.242,9.1a1,1,0,0,1,.659.051,1.2,1.2,0,0,1,.811-.507h.152l.1.1a1.212,1.212,0,0,1,.152.862.916.916,0,0,1,.558.355.94.94,0,0,1-.406.558h.051a.643.643,0,0,0,.3-.051.63.63,0,0,0,.406-.3.177.177,0,0,1,.051-.1v-.1a.457.457,0,0,0-.051-.254.526.526,0,0,0-.406-.3l-.152-.051V9.2C9.676,9.1,9.626,8.9,9.524,8.748ZM9.017,18.942a4.074,4.074,0,0,1-.609-1.876,3.452,3.452,0,0,1-1.674.811,11.543,11.543,0,0,0,.2,5.528C7.8,22.948,9.017,19.3,9.017,18.942Zm.761-.152a2.819,2.819,0,0,1-.406.2,9.4,9.4,0,0,1-.761,2.637A2.155,2.155,0,0,0,9.778,18.789ZM7.242,14.783a1.06,1.06,0,0,1-.2-.3,1.8,1.8,0,0,1-.2-.456l-.152-.152a1.11,1.11,0,0,1-.152-.254.387.387,0,0,1-.1-.254c-.406.254-1.521,1.116-1.572,2.029A2.369,2.369,0,0,0,7.242,14.783Zm1.116.609L7.9,15.24a3.561,3.561,0,0,1-.456-.3,3.918,3.918,0,0,0-.862,2.586A2.951,2.951,0,0,0,8.814,15.9l-.152-.152A.682.682,0,0,1,8.358,15.392ZM4.047,12.7l.051.051c.051.051.1.051.1.1a3.043,3.043,0,0,0,2.13.3v-.1a2.026,2.026,0,0,1,.1-.964v-.051c-.051-.051-.152-.1-.2-.2s-.1-.152-.152-.254a2.867,2.867,0,0,0-1.268.254A2.129,2.129,0,0,0,4.047,12.7ZM5.416,7.582A2.216,2.216,0,0,0,6.633,9.458a1.117,1.117,0,0,1,.051-.406.912.912,0,0,1,.3-.456.818.818,0,0,1,.456-.152A3.673,3.673,0,0,0,5.416,7.582Zm3.7,2.384a.678.678,0,0,1-.051.254.744.744,0,0,1,.1.2.521.521,0,0,0,.355-.3C9.473,10.168,9.372,10.016,9.118,9.965ZM8.1,10.777a1.256,1.256,0,0,0,.761.71s.3-.355,0-1.065A.711.711,0,0,0,8.1,10.777ZM8.916,9s-.507,0-.862.862c0,0,.355.558.862.355C8.865,10.219,9.118,9.306,8.916,9ZM8,9.509a.56.56,0,0,0-.355-.152.4.4,0,0,0,0,.355A1.032,1.032,0,0,1,7.9,9.661C7.9,9.712,7.952,9.56,8,9.509Zm-1.014.964s.254.355,1.014.254a.758.758,0,0,0-.152-.811A1.229,1.229,0,0,0,6.988,10.473ZM25.9,27.208c.1-.1.1-.254.051-.456-.152-.558-.964-.507-1.217-.152a2.754,2.754,0,0,0-.913,0c-.609.051-.811.3-1.014.3-.355,0-.406-.406-1.014-.507-.1,0-.051-.152.051-.1.152.051.3.1.406,0,.051-.1-.254-.456-.71-.507-.2,0-.254-.254-.051-.2.507.1.3-.051,0-.355a.576.576,0,0,0-.406-.152c-.2,0-.355-.254-.1-.254.1,0,.355.1.051-.2-.2-.2-.254-.152-.456-.152s-.2-.2,0-.2c.355-.051.1-.152-.1-.406l-.456-.456a.625.625,0,0,1-.1.355c-.355.152-.811-.406-1.065-.152.1.1,3.246,3.3,2.739,3.854-.2.2-.254,0-.558-.051a.543.543,0,0,0-.71.558c.051.254.254.507.456.507,0,0-.051.152-.406.152a.59.59,0,0,0,.964-.456c.152,0,.659.152.659,0s-.152-.2-.152-.3.254,0,.456.355a3.69,3.69,0,0,0,1.014.964c0,.1-.2.456.1.761a.264.264,0,0,0,.2.1,1.609,1.609,0,0,0-.254.3.837.837,0,0,0,.862-.152,1.533,1.533,0,0,1-.507-.1c.406.051.913-.152.811-.761a.643.643,0,0,0-.659-.507c-.355-.761-.964-.761-1.268-1.369.152.051.964,1.014,2.029.964a.94.94,0,0,0,.406.558.3.3,0,0,0,.2.051c.456.1.254.558.254.558.456-.152.659-.355.609-.71a2.858,2.858,0,0,0-.355.051.566.566,0,0,0,.152-.862.777.777,0,0,0-.862-.254c-.659-.406-1.623-.355-1.876-.71a2.588,2.588,0,0,0,1.572-.051.95.95,0,0,0,.558.254,1.219,1.219,0,0,1,.913.355c.1-.406.051-.71-.152-.862C26.158,27.106,26.107,27.157,25.9,27.208Zm-4.919-4.513a3.888,3.888,0,0,1-1.319-1.674c.152.051.3-.1.3-.1-.3-.1-.507-.558-.609-1.014-.254-1.014-.761-2.586-2.333-2.333a11.378,11.378,0,0,0-.507,3.449,1.761,1.761,0,0,1,.964,2.383.667.667,0,0,0,.456-.152,2.19,2.19,0,0,1-.2,1.014,2.117,2.117,0,0,0,1.319-1.724A3.091,3.091,0,0,0,20.985,22.694Zm-1.166.964a1.591,1.591,0,0,0-.051-.609,2.3,2.3,0,0,1-.406-.1.717.717,0,0,1-.152.507C19.362,23.658,19.819,23.658,19.819,23.658Zm-1.471,5.984a1.785,1.785,0,0,1-.964-.507,2.673,2.673,0,0,1-.558-.761.05.05,0,0,0-.051-.051l.051.051a2.439,2.439,0,0,0,2.181.507C19.16,29.338,18.855,29.693,18.348,29.642Zm-4.412-1.217a4.2,4.2,0,0,1-.558.761,1.786,1.786,0,0,1-.964.507.584.584,0,0,1-.659-.811,2.428,2.428,0,0,0,2.181-.456c0-.051,0-.051.051-.051Zm5.274.254a1.237,1.237,0,0,0,.609-1.42.885.885,0,0,0-.913-.761c.051.1.051.152.1.254.051.507-.355.71-.811.761a1.44,1.44,0,0,1-1.471-1.166,1.071,1.071,0,0,0,1.217-.1.913.913,0,0,0,.1-1.014.7.7,0,0,1-.811.2c-.456-.2-.659-.913-.761-1.471a1.161,1.161,0,0,0,.862.2,5.74,5.74,0,0,1-1.116-3.093,8.092,8.092,0,0,1,.964-4.311.807.807,0,0,1-1.166-.2.958.958,0,0,1-.659.355.635.635,0,0,1-.659-.406.559.559,0,0,1-.811.1,9.388,9.388,0,0,1,.862,4.463,6.252,6.252,0,0,1-1.065,3.144,1.024,1.024,0,0,0,.913-.456,1.732,1.732,0,0,1-.355,1.217,1.115,1.115,0,0,1-.913.659.962.962,0,0,1-.456-.152.908.908,0,0,0,.254,1.116,1.081,1.081,0,0,0,1.166-.1,1.752,1.752,0,0,1-.659.964,1.27,1.27,0,0,1-1.268.152.759.759,0,0,1-.051-.913A1.046,1.046,0,0,0,11.1,27.715a1.087,1.087,0,0,0,.558,1.116,1.323,1.323,0,0,0-.659,1.065,1.1,1.1,0,0,0,.71,1.014,2.179,2.179,0,0,0,1.42.2A3.01,3.01,0,0,0,15,29.591a4.111,4.111,0,0,0-.051,1.927,3.4,3.4,0,0,0,.71,1.42,5.61,5.61,0,0,0,.659-1.471,3.913,3.913,0,0,0,0-1.876,4.361,4.361,0,0,0,.913,1.014,1.965,1.965,0,0,0,1.369.507A1.539,1.539,0,0,0,19.87,30.5a1.212,1.212,0,0,0,.254-.71A1.876,1.876,0,0,0,19.21,28.679ZM14.139,16.406A.717.717,0,0,0,14.6,16s.254.609.659.609c.355,0,.71-.507.71-.507s.2.456.558.507c.659.051,1.065-.761,1.166-.964a1.092,1.092,0,0,1-.558.1h-.1a1.027,1.027,0,0,1-.71-.659,1.251,1.251,0,0,1-.913.609.842.842,0,0,1-.862-.456.915.915,0,0,1-.964.3c-.051,0-.1-.051-.152-.051C13.48,15.8,13.632,16.558,14.139,16.406Zm3.246-3.043a1.842,1.842,0,0,1-.761.862,1.447,1.447,0,0,1-.811-.913,2.022,2.022,0,0,1-1.065,1.217,1.91,1.91,0,0,1-.811-1.166,1.981,1.981,0,0,1-.964.507,4.261,4.261,0,0,0,.3,1.217c.1.152.2.254.355.254a.875.875,0,0,0,.913-.558.929.929,0,0,0,.811.659c.558,0,.964-.862.964-.862s.3.811.761.862c.913.1,1.116-1.166,1.166-1.471A1.175,1.175,0,0,1,17.385,13.363ZM15.356,3.474a6.058,6.058,0,0,0,1.674.152,7.173,7.173,0,0,1,.355-1.116,7.631,7.631,0,0,1,.558-1.116c-.3.152-.659.2-.862.456-.152-.2-.507-.051-.558.1,0-.2-.1-.355-.3-.355.152-.254-.1-.456-.3-.3,0-.152-.152-.254-.254-.355a.527.527,0,0,0-.2.406c-.152-.152-.406,0-.3.254-.254,0-.3.254-.3.456a.345.345,0,0,0-.558-.152c-.1-.3-.558-.254-.761-.507a9.254,9.254,0,0,1,.811,2.181C14.291,3.525,14.7,3.373,15.356,3.474ZM12.364,6.72s.1.3.659.254A4.745,4.745,0,0,0,14.6,6.365a.474.474,0,0,0-.254.355,2.089,2.089,0,0,1,1.724.1.838.838,0,0,0-.406-.964,1.584,1.584,0,0,0-1.217-.3,1.19,1.19,0,0,0-1.674-.811c-.3.2-.558.558-.2,1.319a1.124,1.124,0,0,1,1.319-.2,1.81,1.81,0,0,1,.964-.1C13.936,5.908,13.328,6.923,12.364,6.72Z" transform="translate(385.249 797.062)" fill="#fff"/>
  </g>
</svg>
