<?xml version="1.0" encoding="utf-8"?>
<!-- Generator: Adobe Illustrator 25.1.0, SVG Export Plug-In . SVG Version: 6.00 Build 0)  -->
<svg version="1.1" id="Warstwa_1" xmlns="http://www.w3.org/2000/svg" xmlns:xlink="http://www.w3.org/1999/xlink" x="0px" y="0px"
	 viewBox="0 0 246 43" enable-background="new 0 0 246 43" xml:space="preserve">
<g id="Symbols">
	<g id="_x37_68_x2F_Menu_x2F_Main" transform="translate(-46.000000, -69.000000)">
		<g id="Group-2" transform="translate(0.000000, 0.000000)">
			<g id="Logo" transform="translate(46.000000, 69.000000)">
				<path id="Fill-1" fill-rule="evenodd" clip-rule="evenodd" fill="#1D1D1B" d="M39.7,33.7l0.6,0.3v1.8c0,1.3,0,1.9-0.1,2
					l-0.6,0.3l-0.1,0.3c0.5,0,1,0,1.4,0c0.4,0,0.9,0,1.3,0l0.1-0.3l-0.7-0.3c0-0.1,0-0.8,0-2V34l0.6-0.3l0.1-0.3c-0.4,0-0.9,0-1.3,0
					c-0.4,0-0.8,0-1.2,0L39.7,33.7z M43.4,33.7c0.6,0.2,0.7,0.2,0.8,0.4c-0.1,1.1-0.4,3.2-0.5,3.7l-0.6,0.3l-0.1,0.3
					c0.3,0,0.6,0,1,0c0.3,0,0.7,0,1,0l0.1-0.3l-0.7-0.3c0-0.6,0.1-2.3,0.2-3.4h0c1,2.4,1.3,3.1,1.8,4.2l0.3-0.1c0.9-2,1.5-3.3,1.8-4
					h0v3.5l-0.4,0.3L48,38.5c0.4,0,0.8,0,1.3,0c0.4,0,0.9,0,1.3,0l0.1-0.3l-0.8-0.3c-0.1-0.3-0.2-3.1-0.2-3.9l0.7-0.3l0.1-0.3l-2,0
					c0,0.2,0,0.2-0.1,0.3c-0.6,1.3-1.1,2.3-1.4,2.9h0c-0.7-1.4-1.3-2.5-1.4-2.8c0-0.1,0-0.2,0-0.3l-2,0L43.4,33.7z M52.3,36.9
					c-0.2,0.1-0.6,0.5-0.8,0.8l0,0.1c0.1,0.3,0.5,0.6,0.7,0.8l0.1,0c0.2-0.1,0.6-0.5,0.8-0.8l0-0.1C53,37.4,52.6,37,52.3,36.9
					L52.3,36.9z M56.4,31.9l0.9,0.3v2.6c0,2.2,0,2.9,0,3.1l-0.7,0.4l-0.1,0.3c0.5,0,1,0,1.5,0c0.6,0,1.3,0,1.9,0l0.1-0.3l-1.2-0.4
					c0-0.2-0.1-0.6-0.1-3.1v-2.8c1.2,0,2,0.4,2,1.7c0,1-0.5,1.7-1.6,1.8l0.1,0.3c0.1,0,0.3,0.1,0.5,0.1c0.9,0,2.5-0.5,2.5-2.2
					c0-0.6-0.2-1.3-0.9-1.7c-0.5-0.3-1.2-0.4-2.2-0.4c-0.7,0-1.5,0.1-2.5,0.2L56.4,31.9z M63,33.7l0.6,0.3v1.8c0,1.3,0,1.9-0.1,2
					L63,38.2l-0.1,0.3c0.5,0,1,0,1.4,0c0.4,0,0.9,0,1.3,0l0.1-0.3L65,37.9c0-0.1,0-0.8,0-2V34l0.6-0.3l0.1-0.3c-0.4,0-0.9,0-1.3,0
					c-0.4,0-0.8,0-1.2,0L63,33.7z M68.6,33.8l0.1,0.2c0,0.1,0,0.1,0,0.2c-0.7,1.5-1.5,3.4-1.7,3.8l-0.5,0.3l-0.1,0.3
					c0.3,0,0.6,0,0.9,0c0.3,0,0.7,0,1.1,0l0.1-0.3l-0.7-0.3c0.1-0.2,0.2-0.5,0.4-1c1.1,0,1.4,0,1.7,0c0.2,0.5,0.4,0.9,0.4,1.1
					l-0.3,0.3l-0.1,0.3c0.4,0,0.8,0,1.2,0c0.4,0,0.8,0,1.2,0l0.1-0.3c-0.6-0.2-0.7-0.3-0.8-0.6c-1-2.4-1.4-3.4-1.6-3.7
					c-0.1-0.2-0.1-0.3-0.1-0.5l-0.1-0.1L68.6,33.8z M68.9,34.6c0.1,0.4,0.4,1,0.7,1.8c-0.3,0-1.1,0-1.4,0
					C68.4,35.9,68.5,35.6,68.9,34.6L68.9,34.6z M75.1,33.3c-1.2,0-1.9,0.7-1.9,1.5c0,0.6,0.3,1,0.9,1.3c0.5,0.3,0.8,0.4,1.3,0.6
					c0.4,0.2,0.6,0.4,0.6,0.7c0,0.5-0.4,0.7-1.1,0.8c-0.4,0-0.7-0.1-0.8-0.1c-0.2-0.8-0.3-1.1-0.4-1.2l-0.2,0.1
					c-0.1,0.1-0.4,0.9-0.4,1.2c0.3,0.3,1.1,0.6,1.8,0.6c1.1,0,2.3-0.4,2.3-1.6c0-0.5-0.2-1-1.1-1.3c-0.5-0.3-1-0.4-1.3-0.5
					c-0.3-0.1-0.5-0.3-0.5-0.6c0-0.4,0.4-0.7,0.9-0.7c0.4,0,0.6,0.1,0.7,0.2c0.1,0.3,0.3,0.8,0.4,1l0.2-0.1c0.1-0.3,0.3-1.1,0.3-1.5
					l-0.1-0.1c-0.3,0.1-0.6,0.2-0.7,0.3C75.9,33.4,75.5,33.3,75.1,33.3L75.1,33.3z M79,33.5c-0.1,0-0.7-0.1-0.8-0.1l-0.1,0
					c0,0.3,0,1.2,0,1.7l0.2,0c0.2-0.3,0.5-0.9,0.7-1.1l1,0.1v2c0,1.4,0,1.7,0,2l-0.8,0.3L79,38.5c0.5,0,1.1,0,1.6,0c0.5,0,1,0,1.5,0
					l0.1-0.3l-1-0.3c0-0.2,0-0.3,0-2.2V34l1.1-0.1c0.1,0.2,0.3,1,0.4,1.2l0.2-0.1c0.1-0.3,0.3-1.3,0.4-1.6l-0.1,0
					c-0.2,0-0.7,0.1-0.9,0.1H79z M87.1,33.3c-1.6,0-3,1.1-3,2.7c0,1.8,1.5,2.6,3,2.6c1.5,0,3-0.8,3-2.7C90,34.1,88.3,33.3,87.1,33.3
					L87.1,33.3z M87,33.7c1.1,0,1.6,1.3,1.6,2.3c0,1-0.4,2.2-1.5,2.2c-1.1,0-1.7-1.2-1.7-2.3C85.5,34.8,86,33.7,87,33.7L87,33.7z
					 M86.7,32.8l1.9-1.3l0-0.2c-0.2-0.2-0.7-0.4-1-0.4l-1.1,1.6L86.7,32.8z M90.5,33.7c0.6,0.3,0.7,0.3,0.8,0.5
					c0.5,1,1.9,3.9,2.1,4.4h0.1c0.2-0.2,0.5-0.5,0.6-0.7c0.3-0.5,0.5-1,0.8-1.6h0c0.4,0.9,0.9,1.9,1.1,2.3h0.1
					c0.2-0.1,0.4-0.5,0.6-0.7c0.7-1.7,1.5-3.4,1.7-3.7c0.1-0.2,0.2-0.2,0.7-0.5l0.1-0.3c-0.3,0-0.6,0-1,0h-0.6l-0.1,0.3l0.3,0.3
					c-0.4,1.1-0.9,2.4-1.2,3.1l0,0c-0.4-0.8-0.7-1.5-0.8-1.7c0.4-0.8,0.6-1.1,0.7-1.2c0.1-0.1,0.2-0.2,0.6-0.4l0.1-0.3
					c-0.3,0-0.5,0-0.7,0h-0.5l0,0l0,0.4c-0.1,0.3-0.2,0.5-0.4,1h0c-0.3-0.6-0.4-0.8-0.5-1l-0.1-0.4l0,0h-0.6c-0.4,0-0.7,0-1.1,0
					l-0.1,0.3c0.4,0.2,0.6,0.3,0.7,0.5c0.2,0.3,0.5,1,0.8,1.7c-0.3,0.6-0.5,1-0.7,1.3h0c-1-2-1.4-2.9-1.5-3.2l0.3-0.2l0.1-0.3
					c-0.4,0-0.7,0-1.1,0c-0.4,0-0.8,0-1.2,0L90.5,33.7z M104.7,31.4c-1.5,0-2.3,1-2.3,2c0,0.8,0.3,1.3,1.1,1.7
					c0.5,0.3,1,0.6,1.5,0.9c0.4,0.2,0.7,0.6,0.7,1c0,0.8-0.6,1.2-1.4,1.2c-0.5,0-0.9-0.1-1-0.2c-0.2-0.9-0.4-1.4-0.4-1.6l-0.2,0.1
					c-0.1,0.2-0.5,1.1-0.6,1.4c0.2,0.2,1.2,0.7,2.2,0.7c1,0,2.6-0.5,2.6-2.1c0-0.6-0.2-1.2-1.3-1.8c-0.6-0.3-1.2-0.6-1.6-0.8
					c-0.4-0.2-0.6-0.5-0.6-0.9c0-0.6,0.5-1.1,1.3-1.1c0.4,0,0.7,0.1,0.8,0.2c0.1,0.3,0.3,0.9,0.5,1.1l0.2-0.1
					c0.2-0.5,0.4-1.5,0.4-1.7l-0.1-0.1c-0.3,0.1-0.6,0.2-0.8,0.3C105.6,31.5,105.2,31.4,104.7,31.4L104.7,31.4z M104.1,31l2.2-0.8
					l0-0.1c-0.2-0.3-0.5-0.7-0.7-0.7l-1.7,1.3L104.1,31z M107.9,33.7l0.7,0.3v1.8c0,1.2,0,2,0,2.1l-0.7,0.3l-0.1,0.3
					c0.5,0,1,0,1.4,0c2.1,0,2.6,0,2.9,0c0.1-0.3,0.2-1.3,0.3-1.6l-0.2,0c-0.2,0.2-0.8,0.9-0.9,1.2l-1.3-0.1c0-0.3,0-0.9,0-2.1V34
					l0.6-0.3l0.1-0.3c-0.5,0-1,0-1.4,0c-0.4,0-0.8,0-1.2,0L107.9,33.7z M115.8,34.6c0.1,0.4,0.4,1,0.7,1.8c-0.3,0-1.1,0-1.4,0
					C115.3,35.9,115.4,35.6,115.8,34.6L115.8,34.6z M117.5,39.8c-0.2,0.1-0.5,0.1-0.6,0.1c-0.4,0-0.5-0.2-0.5-0.4
					c0-0.3,0.3-0.7,0.8-1.1c0.3,0,0.4,0,0.7,0c0.4,0,0.8,0,1.2,0l0.1-0.3c-0.6-0.2-0.7-0.3-0.8-0.6c-1-2.4-1.5-3.4-1.6-3.7
					c-0.1-0.2-0.1-0.3-0.1-0.5l-0.1-0.1l-1.1,0.4l0.1,0.2c0,0.1,0,0.1,0,0.2c-0.7,1.6-1.5,3.4-1.7,3.8l-0.5,0.3l-0.1,0.3
					c0.3,0,0.6,0,0.9,0c0.4,0,0.7,0,1.1,0l0.1-0.3l-0.7-0.3c0.1-0.2,0.2-0.5,0.4-1c1.1,0,1.4,0,1.7,0c0.2,0.5,0.4,0.9,0.4,1.1
					c-0.6,0.5-1.6,1-1.6,1.9c0,0.5,0.5,0.8,1,0.8c0.5,0,0.9-0.2,1.2-0.5L117.5,39.8z M122,33.3c-1.2,0-1.9,0.7-1.9,1.5
					c0,0.6,0.3,1,0.9,1.3c0.5,0.3,0.8,0.4,1.3,0.6c0.4,0.2,0.6,0.4,0.6,0.7c0,0.5-0.4,0.7-1.1,0.8c-0.4,0-0.7-0.1-0.8-0.1
					c-0.2-0.8-0.3-1.1-0.4-1.2l-0.2,0.1c-0.1,0.1-0.4,0.9-0.4,1.2c0.3,0.3,1.1,0.6,1.8,0.6c1.1,0,2.3-0.4,2.3-1.6
					c0-0.5-0.2-1-1.1-1.3c-0.5-0.3-1-0.4-1.3-0.5c-0.3-0.1-0.5-0.3-0.5-0.6c0-0.4,0.4-0.7,0.9-0.7c0.4,0,0.6,0.1,0.7,0.2
					c0.1,0.3,0.3,0.8,0.4,1l0.2-0.1c0.1-0.3,0.3-1.1,0.3-1.5l-0.1-0.1c-0.3,0.1-0.6,0.2-0.7,0.3C122.8,33.4,122.4,33.3,122,33.3
					L122,33.3z M130.6,33.5c-0.2,0-1.1-0.1-1.8,0c0,0.1,0,0.3,0,0.5c-0.2,0.3-0.6,0.8-1.7,2.1v0c0.5,0.8,1.1,1.5,1.5,1.9
					c0.4,0.4,0.8,0.6,2,0.7l0.1-0.1c-0.1-0.1-0.2-0.3-0.8-1c-0.6-0.7-1.3-1.6-1.6-2.1v0c0.4-0.5,0.9-1,1.1-1.2
					c0.1-0.1,0.2-0.1,0.3-0.2c0.3-0.1,0.8-0.3,0.9-0.3L130.6,33.5z M124.9,33.7l0.7,0.3v1.9c0,1.3,0,1.9-0.1,2l-0.6,0.3l-0.1,0.3
					c0.4,0,0.9,0,1.3,0c0.5,0,0.9,0,1.4,0l0.1-0.3l-0.7-0.3c0-0.1,0-0.8,0-2V34l0.5-0.3l0.1-0.3c-0.4,0-0.9,0-1.3,0
					c-0.4,0-0.8,0-1.2,0L124.9,33.7z M131.4,33.7L132,34v1.8c0,1.3,0,1.9-0.1,2l-0.6,0.3l-0.1,0.3c0.5,0,1,0,1.4,0
					c0.4,0,0.9,0,1.3,0l0.1-0.3l-0.7-0.3c0-0.1,0-0.8,0-2V34l0.6-0.3l0.1-0.3c-0.4,0-0.9,0-1.3,0c-0.4,0-0.8,0-1.2,0L131.4,33.7z
					 M140.2,33.4c-0.2,0-0.5,0.1-0.8,0.3c-0.4-0.2-0.8-0.3-1.3-0.3c-1.3,0-3.1,0.8-3.1,2.7c0,1.9,1.6,2.6,3.1,2.6
					c0.5,0,1.1-0.1,1.5-0.2c0.1-0.1,0.4-0.7,0.6-1.3l-0.2-0.1c-0.3,0.2-0.7,0.6-1.2,1c-0.1,0-0.2,0-0.3,0c-1.4,0-2.2-1-2.2-2.2
					c0-1.2,0.7-2.1,2.1-2.1c0.3,0,0.6,0.1,0.8,0.2c0.1,0.4,0.3,0.8,0.4,1l0.2-0.1C139.9,34.8,140.2,33.9,140.2,33.4L140.2,33.4z
					 M141.2,33.7l0.6,0.3v1.8c0,0.9,0,1.9,0,2.1l-0.6,0.3l-0.1,0.3c0.4,0,0.9,0,1.4,0c0.4,0,0.8,0,1.1,0l0.1-0.3l-0.5-0.3
					c0-0.7,0-1.3,0-1.8h1.3c0.4,0,0.7,0,0.9,0c0,0.6,0,1.3,0,1.9l-0.4,0.3l-0.1,0.3c0.3,0,0.7,0,1.2,0c0.5,0,0.9,0,1.3,0l0.1-0.3
					l-0.7-0.3c0-0.1-0.1-1.2-0.1-2V34l0.6-0.3l0.1-0.3c-0.4,0-0.9,0-1.4,0c-0.4,0-0.7,0-1,0l-0.1,0.3l0.4,0.3v1.5h-2.2V34l0.4-0.3
					l0.1-0.3c-0.4,0-0.7,0-1.1,0c-0.4,0-0.8,0-1.2,0L141.2,33.7z M150.3,33.7c0.6,0.3,0.7,0.3,0.8,0.5c0.5,1,1.9,3.9,2.1,4.4h0.1
					c0.2-0.2,0.5-0.5,0.6-0.7c0.3-0.5,0.5-1,0.8-1.6h0c0.4,0.9,0.9,1.9,1.1,2.3h0.1c0.2-0.1,0.4-0.5,0.6-0.7
					c0.7-1.7,1.5-3.4,1.7-3.7c0.1-0.2,0.2-0.2,0.7-0.5l0.1-0.3c-0.3,0-0.6,0-1,0h-0.6l-0.1,0.3l0.3,0.3c-0.4,1.1-0.9,2.4-1.2,3.1
					l0,0c-0.4-0.8-0.7-1.5-0.8-1.7c0.4-0.8,0.6-1.1,0.7-1.2c0.1-0.1,0.2-0.2,0.6-0.4l0.1-0.3c-0.3,0-0.5,0-0.7,0h-0.5l0,0l0,0.4
					c-0.1,0.3-0.2,0.5-0.4,1h0c-0.3-0.6-0.4-0.8-0.5-1l-0.1-0.4l0,0h-0.6c-0.4,0-0.7,0-1.1,0l-0.1,0.3c0.4,0.2,0.6,0.3,0.7,0.5
					c0.2,0.3,0.5,1,0.8,1.7c-0.3,0.6-0.5,1-0.7,1.3h0c-1-2-1.4-2.9-1.5-3.2l0.3-0.2l0.1-0.3c-0.4,0-0.7,0-1.1,0c-0.4,0-0.8,0-1.2,0
					L150.3,33.7z M159.7,33.7l0.8,0.3v1.9c0,1.3,0,1.9-0.1,2l-0.7,0.3l-0.1,0.3c0.5,0,1,0,1.5,0h1.5c0.5,0,1,0,1.5,0
					c0.1-0.4,0.3-1.3,0.3-1.5l-0.2-0.1c-0.2,0.2-0.7,0.9-0.9,1.1l-1.5-0.1c0-0.5,0-1.4,0-1.8c0.4,0,1.5,0.1,1.6,0.1
					c0.1-0.1,0.5-0.5,0.5-0.6l-0.1-0.1c-0.5,0.1-1.4,0.1-2.1,0.1V34l1.4-0.1c0.1,0.2,0.4,0.8,0.5,1l0.2-0.1c0.1-0.3,0.2-1.1,0.2-1.3
					l-0.1-0.1c-0.3,0-0.8,0.1-0.9,0.1h-2.1c-0.4,0-0.9,0-1.3,0L159.7,33.7z M167.1,31.9c0.5,0.2,0.7,0.3,0.9,0.5
					c0.6,1.2,2.5,5.6,2.8,6.3h0.1c0.2-0.2,0.5-0.6,0.7-0.9c0.3-0.6,0.6-1.3,1.1-2.2h0c0.6,1.3,1.2,2.7,1.4,3.1h0.1
					c0.2-0.2,0.5-0.6,0.7-0.9c0.9-2.2,1.9-4.8,2.2-5.3c0.2-0.2,0.4-0.4,0.9-0.5l0.1-0.3c-0.4,0-0.8,0-1.2,0h-0.6l-0.1,0.3l0.3,0.3
					c-0.6,1.7-1.3,3.7-1.7,4.7h0c-0.6-1.5-1-2.4-1.2-2.7c0.6-1.1,0.9-1.6,1-1.8c0.2-0.2,0.5-0.3,0.9-0.5l0.1-0.3c-0.3,0-0.7,0-1,0
					H174l0,0l0,0.5c-0.2,0.5-0.3,0.8-0.7,1.5h0c-0.5-1.1-0.6-1.3-0.6-1.5l-0.1-0.5l0,0h-0.8c-0.4,0-0.8,0-1.2,0l-0.1,0.3
					c0.4,0.2,0.6,0.3,0.8,0.4c0.3,0.6,0.8,1.6,1.2,2.7c-0.4,0.9-0.7,1.5-1,2h0c-1.5-3.5-1.8-4.3-2-4.9l0.3-0.3l0.1-0.3h-1.1
					c-0.5,0-0.9,0-1.4,0L167.1,31.9z M177.7,33.9l0.7,0.2v2c0,1,0,1.6-0.1,1.9l-0.6,0.3l-0.1,0.3c0.5,0,0.9,0,1.4,0
					c0.4,0,0.9,0,1.3,0l0.1-0.3l-0.7-0.3c0-0.3,0-0.8,0-1.9v-2.2c1,0,1.5,0.2,1.5,1.1c0,0.7-0.5,1-1.2,1.2l0,0.1
					c0.5,0.8,1,1.5,1.2,1.8c0.3,0.4,0.7,0.6,1.7,0.6l0.1-0.1c-0.1-0.2-0.2-0.3-0.6-0.9c-0.4-0.5-0.9-1.2-1.1-1.5l0,0
					c0.5-0.2,1.2-0.5,1.2-1.3c0-0.8-0.6-1.4-2.4-1.4c-0.8,0-2,0.1-2.4,0.2L177.7,33.9z M186.9,33.3c-1.6,0-3,1.1-3,2.7
					c0,1.8,1.5,2.6,3,2.6c1.5,0,3-0.8,3-2.7C189.8,34.1,188.2,33.3,186.9,33.3L186.9,33.3z M186.8,33.7c1.1,0,1.6,1.3,1.6,2.3
					c0,1-0.4,2.2-1.5,2.2c-1.1,0-1.7-1.2-1.7-2.3C185.3,34.8,185.8,33.7,186.8,33.7L186.8,33.7z M196.1,33.4c-0.2,0-0.5,0.1-0.8,0.3
					c-0.4-0.2-0.8-0.3-1.3-0.3c-1.3,0-3.1,0.8-3.1,2.7c0,1.9,1.6,2.6,3.1,2.6c0.5,0,1.1-0.1,1.5-0.2c0.1-0.1,0.4-0.7,0.6-1.3
					l-0.2-0.1c-0.3,0.2-0.7,0.6-1.2,1c-0.1,0-0.2,0-0.3,0c-1.4,0-2.2-1-2.2-2.2c0-1.2,0.7-2.1,2.1-2.1c0.3,0,0.6,0.1,0.8,0.2
					c0.1,0.4,0.3,0.8,0.4,1l0.2-0.1C195.8,34.8,196.1,33.9,196.1,33.4L196.1,33.4z M197.3,36.4l0,0.5l0.7-0.4c0,0.8,0,1.4,0,1.5
					l-0.7,0.3l-0.1,0.3c0.5,0,1,0,1.4,0c2.1,0,2.6,0,2.9,0c0.1-0.3,0.2-1.3,0.3-1.6h-0.2c-0.2,0.2-0.8,0.9-1,1.2l-1.3-0.1
					c0-0.3,0-0.8,0-2.2l1-0.6l0-0.5l-1.1,0.6V34l0.6-0.3l0.1-0.3c-0.5,0-1,0-1.4,0c-0.4,0-0.8,0-1.2,0l-0.1,0.3L198,34v2L197.3,36.4
					z M204.8,33.8l0.1,0.2c0,0.1,0,0.1,0,0.2c-0.7,1.5-1.5,3.4-1.7,3.8l-0.5,0.3l-0.1,0.3c0.3,0,0.6,0,0.9,0c0.3,0,0.7,0,1.1,0
					l0.1-0.3l-0.7-0.3c0.1-0.2,0.2-0.5,0.4-1c1.1,0,1.4,0,1.7,0c0.2,0.5,0.4,0.9,0.4,1.1l-0.3,0.3l-0.1,0.3c0.4,0,0.8,0,1.1,0
					c0.4,0,0.8,0,1.2,0l0.1-0.3c-0.6-0.2-0.7-0.3-0.8-0.6c-1-2.4-1.4-3.4-1.6-3.7c-0.1-0.2-0.1-0.3-0.1-0.5l-0.1-0.1L204.8,33.8z
					 M205.1,34.6c0.1,0.4,0.4,1,0.7,1.8c-0.3,0-1.1,0-1.4,0C204.6,35.9,204.8,35.6,205.1,34.6L205.1,34.6z M208.3,33.7
					c0.6,0.3,0.7,0.3,0.8,0.5c0.5,1,1.9,3.9,2.1,4.4h0.1c0.2-0.2,0.5-0.5,0.6-0.7c0.3-0.5,0.5-1,0.8-1.6h0c0.4,0.9,0.9,1.9,1.1,2.3
					h0.1c0.2-0.1,0.4-0.5,0.6-0.7c0.7-1.7,1.5-3.4,1.7-3.7c0.1-0.2,0.2-0.2,0.7-0.5l0.1-0.3c-0.3,0-0.6,0-1,0h-0.6l-0.1,0.3l0.3,0.3
					c-0.4,1.1-0.9,2.4-1.2,3.1l0,0c-0.4-0.8-0.7-1.5-0.8-1.7c0.4-0.8,0.6-1.1,0.7-1.2c0.1-0.1,0.2-0.2,0.6-0.4l0.1-0.3
					c-0.3,0-0.5,0-0.7,0h-0.5l0,0l0,0.4c-0.1,0.3-0.2,0.5-0.4,1h0c-0.3-0.6-0.4-0.8-0.5-1l-0.1-0.4l0,0h-0.6c-0.4,0-0.7,0-1.1,0
					l-0.1,0.3c0.4,0.2,0.6,0.3,0.7,0.5c0.2,0.3,0.5,1,0.8,1.7c-0.3,0.6-0.5,1-0.7,1.3h0c-1-2-1.4-2.9-1.5-3.2l0.3-0.2l0.1-0.3
					c-0.4,0-0.7,0-1.1,0c-0.4,0-0.8,0-1.2,0L208.3,33.7z M217.7,33.7l0.6,0.3v1.8c0,1.3,0,1.9-0.1,2l-0.6,0.3l-0.1,0.3
					c0.5,0,1,0,1.4,0c0.4,0,0.9,0,1.3,0l0.1-0.3l-0.7-0.3c0-0.1,0-0.8,0-2V34l0.6-0.3l0.1-0.3c-0.4,0-0.9,0-1.3,0
					c-0.4,0-0.8,0-1.2,0L217.7,33.7z M221.2,33.7l0.7,0.3v2.5c0,0.7,0.2,1.2,0.6,1.5c0.4,0.4,1,0.5,1.6,0.6c0.6,0,1.3-0.2,1.6-0.5
					c0.6-0.5,0.7-1,0.7-1.7c0-1.6,0.1-2.1,0.1-2.3l0.7-0.3l0.1-0.3c-0.4,0-0.7,0-1.1,0c-0.3,0-0.6,0-0.9,0l-0.1,0.3l0.7,0.3
					c0,0.6,0,1.3,0,2.4c0,0.4-0.1,0.7-0.2,0.9c-0.3,0.4-0.7,0.6-1.2,0.6c-0.5,0-0.9-0.2-1.1-0.5c-0.1-0.2-0.2-0.5-0.2-0.9V34
					l0.5-0.3l0.1-0.3c-0.4,0-0.8,0-1.2,0c-0.4,0-0.8,0-1.3,0L221.2,33.7z"/>
				<g id="Group-5" transform="translate(39.224583, 13.669173)">
					<g id="Clip-4">
					</g>
					<defs>
						<filter id="Adobe_OpacityMaskFilter" filterUnits="userSpaceOnUse" x="0.4" y="0.1" width="205.9" height="11.9">
							<feColorMatrix  type="matrix" values="1 0 0 0 0  0 1 0 0 0  0 0 1 0 0  0 0 0 1 0"/>
						</filter>
					</defs>
					<mask maskUnits="userSpaceOnUse" x="0.4" y="0.1" width="205.9" height="11.9" id="mask-2_1_">
						<g filter="url(#Adobe_OpacityMaskFilter)">
							<polygon id="path-1_1_" fill-rule="evenodd" clip-rule="evenodd" fill="#FFFFFF" points="0.4,0.1 206.3,0.1 206.3,12 0.4,12 
															"/>
						</g>
					</mask>
					<path id="Fill-3" mask="url(#mask-2_1_)" fill-rule="evenodd" clip-rule="evenodd" fill="#1D1D1B" d="M0.4,0.6l1.4,0.6
						c0,1.5,0,3.8,0,6.4C1.9,8.5,2,9.3,2.4,10C3.2,11.5,5,12,6.7,12c1.8,0,3.2-0.8,4-2c0.5-0.8,0.7-1.8,0.7-2.8
						c0.1-5.3,0.1-5.7,0.2-6L13,0.6l0.1-0.5c-0.7,0-1.4,0-2.2,0c-0.5,0-1.1,0-1.7,0L9.1,0.6l1.3,0.6c0.1,1.7,0.1,3.5,0.1,6.1
						c0,1.1-0.2,1.8-0.6,2.3c-0.5,0.8-1.5,1.2-2.6,1.2c-1.2,0-2.1-0.5-2.6-1.2C4.3,9.2,4.1,8.6,4.1,7.8c0-2.4,0-4.6,0-6.6l1-0.6
						l0.1-0.5c-0.7,0-1.5,0-2.3,0c-0.8,0-1.6,0-2.4,0L0.4,0.6z M17.3,11.3l-1.2-0.6C16,10.2,15.9,7.4,16,5.5h0
						c2.6,3.1,4.9,5.6,6.1,6.5l0.5-0.1c0-0.2,0.1-0.8,0.1-1.3c0-2.4,0.2-5.9,0.2-6.3L24,3.8l0.1-0.5c-0.6,0-1.2,0-1.9,0
						c-0.5,0-1,0-1.6,0l-0.2,0.5l1.2,0.6c0,0.6,0.1,4,0.1,4.4h-0.1c-1.6-1.7-2.7-2.8-4.4-4.7c-0.4-0.4-0.5-0.7-0.6-0.8l-2.9,0.1
						l-0.2,0.4c0.7,0.2,1.1,0.4,1.5,1c-0.1,3.7-0.2,5.5-0.3,5.9l-1.2,0.6l-0.1,0.5c0.6,0,1.2,0,1.8,0c0.6,0,1.2,0,1.7,0L17.3,11.3z
						 M25.4,3.7l1.1,0.5v3.1c0,2.1,0,3.2-0.1,3.4l-1,0.5l-0.1,0.5c0.8,0,1.6,0,2.4,0c0.7,0,1.5,0,2.2,0l0.1-0.5l-1.3-0.5
						c0-0.2-0.1-1.3-0.1-3.4V4.2l1-0.5l0.1-0.4c-0.8,0-1.5,0-2.2,0c-0.7,0-1.3,0-2,0L25.4,3.7z M31,3.7c1,0.4,1.1,0.6,1.3,0.9
						c0.8,1.6,3.2,6.5,3.6,7.4h0.2c0.3-0.3,0.8-0.8,1.1-1.2c0.5-0.8,0.9-1.6,1.4-2.6h0c0.8,1.5,1.6,3.3,1.8,3.8h0.2
						c0.3-0.2,0.8-0.8,1-1.2c1.2-2.9,2.5-5.8,2.8-6.3c0.2-0.3,0.4-0.4,1.3-0.8l0.1-0.5c-0.5,0-1.1,0-1.6,0h-1l-0.2,0.4l0.4,0.5
						c-0.7,1.9-1.6,4-2,5.2l0,0c-0.7-1.4-1.3-2.5-1.4-2.9c0.7-1.4,1-1.9,1.2-2.1c0.1-0.2,0.3-0.3,1.1-0.7l0.2-0.5
						c-0.4,0-0.8,0-1.3,0h-0.8l0,0.1l0,0.7c-0.2,0.5-0.4,0.9-0.7,1.7h-0.1c-0.5-1-0.7-1.4-0.8-1.7l-0.1-0.7l-0.1-0.1h-1
						c-0.6,0-1.2,0-1.9,0l-0.2,0.4c0.7,0.4,1,0.5,1.1,0.8c0.3,0.5,0.9,1.6,1.4,2.9c-0.5,1-0.8,1.6-1.1,2.2H37
						c-1.6-3.5-2.4-4.9-2.6-5.5l0.4-0.4L35,3.3c-0.7,0-1.2,0-1.8,0c-0.7,0-1.3,0-2,0L31,3.7z M46.8,3.7L48,4.2v3.1
						c0,2.1,0,3.3-0.1,3.4l-1.2,0.5l-0.2,0.4c0.8,0,1.7,0,2.5,0h2.6c0.8,0,1.6,0,2.5,0.1c0.2-0.7,0.5-2.1,0.5-2.5l-0.4-0.1
						c-0.4,0.4-1.2,1.4-1.6,1.9l-2.5-0.2c-0.1-0.8-0.1-2.3-0.1-3C50.9,7.9,52.7,8,53,8c0.2-0.1,0.8-0.8,0.9-1l-0.1-0.2
						C52.8,6.9,51.4,7,50.2,7V4.1L52.7,4c0.2,0.3,0.6,1.3,0.8,1.7l0.4-0.2c0.1-0.6,0.3-1.8,0.4-2.3l-0.1-0.1c-0.5,0-1.3,0.1-1.5,0.2
						h-3.5c-0.7,0-1.4,0-2.2,0L46.8,3.7z M56.2,4l1.2,0.3v3.4c0,1.7-0.1,2.7-0.1,3.1l-1.1,0.5l-0.1,0.5c0.8,0,1.6,0,2.3,0
						c0.8,0,1.5,0,2.2,0l0.1-0.5l-1.2-0.5c0-0.5-0.1-1.4-0.1-3.1V4c1.6-0.1,2.6,0.4,2.6,1.8c0,1.2-0.8,1.7-2.1,2l0,0.1
						c0.8,1.4,1.6,2.5,2.1,3.1c0.6,0.7,1.2,1,2.9,1l0.2-0.2c-0.2-0.3-0.3-0.4-1-1.4c-0.6-0.8-1.5-2.1-1.9-2.6l0-0.1
						c0.9-0.3,2-0.8,2-2.1c0-1.4-1-2.3-4-2.3c-1.4,0-3.4,0.2-4,0.3L56.2,4z M70.3,3.1c-2,0-3.2,1.2-3.2,2.6c0,1,0.6,1.7,1.5,2.2
						c0.9,0.4,1.4,0.6,2.2,1c0.7,0.3,1,0.6,1,1.1c0,0.8-0.8,1.2-1.9,1.3c-0.7,0-1.2-0.1-1.3-0.2c-0.4-1.3-0.6-1.9-0.7-2.1L67.6,9
						c-0.2,0.2-0.7,1.5-0.8,2c0.5,0.5,1.9,1,3.1,1c1.9,0,3.9-0.7,3.9-2.7c0-0.9-0.3-1.6-1.8-2.3c-0.9-0.4-1.6-0.7-2.2-0.9
						C69.3,5.9,69,5.5,69,5c0-0.7,0.7-1.2,1.6-1.2c0.6,0,1.1,0.2,1.2,0.3c0.2,0.4,0.5,1.3,0.7,1.6l0.3-0.1c0.2-0.5,0.5-1.9,0.6-2.5
						L73.1,3c-0.5,0.1-1,0.3-1.2,0.5C71.6,3.2,70.9,3.1,70.3,3.1L70.3,3.1z M74.9,3.7C75.6,4,76,4.2,76.1,4.4
						C77,5.6,78,7.1,78.3,7.7c0.1,0.2,0.2,0.3,0.2,0.5c0,2-0.1,2.5-0.1,2.6L77,11.3l-0.1,0.5c0.9,0,1.8,0,2.7,0c0.8,0,1.7,0,2.5,0
						l0.1-0.5l-1.5-0.5c0-0.1-0.1-0.7-0.1-2.7c0-0.1,0-0.2,0.1-0.4c1.1-1.9,1.8-2.9,2.1-3.3c0.1-0.1,0.2-0.2,0.4-0.3l0.9-0.4
						l0.2-0.5c-0.5,0-1,0-1.5,0h-1.2l-0.2,0.5l0.5,0.4c-0.3,0.6-0.9,1.7-1.6,3h0c-1.1-1.8-1.6-2.8-1.7-3l0.3-0.4L79,3.3h-1.7
						c-0.7,0-1.5,0-2.2,0L74.9,3.7z M87.2,3.3c-0.2-0.1-1.1-0.2-1.4-0.2l-0.1,0.1c0,0.5-0.1,2.1-0.1,2.8L86,5.9
						c0.3-0.5,0.9-1.5,1.1-1.9l1.7,0.1v3.3c0,2.4,0,2.9,0,3.3l-1.4,0.5l-0.1,0.5c0.9,0,1.8,0,2.7,0c0.9,0,1.7,0,2.6,0l0.2-0.5
						l-1.6-0.5c0-0.3-0.1-0.5-0.1-3.7v-3L92.8,4c0.1,0.3,0.5,1.6,0.7,2l0.3-0.2c0.2-0.5,0.5-2.1,0.7-2.7l-0.1-0.1
						c-0.4,0-1.1,0.1-1.5,0.2H87.2z M95.6,3.7l1.3,0.5v3.1c0,2.1,0,3.3-0.1,3.4l-1.2,0.5l-0.2,0.4c0.8,0,1.7,0,2.5,0h2.6
						c0.8,0,1.6,0,2.5,0.1c0.2-0.7,0.5-2.1,0.5-2.5l-0.4-0.1c-0.4,0.4-1.2,1.4-1.6,1.9l-2.5-0.2c-0.1-0.8-0.1-2.3-0.1-3
						c0.6,0,2.5,0.2,2.8,0.2c0.2-0.1,0.8-0.8,0.9-1l-0.1-0.2c-0.9,0.1-2.3,0.2-3.5,0.2V4.1l2.4-0.1c0.2,0.3,0.6,1.3,0.8,1.7l0.4-0.2
						c0.1-0.6,0.3-1.8,0.4-2.3L103,3.1c-0.5,0-1.3,0.1-1.5,0.2H98c-0.7,0-1.4,0-2.2,0L95.6,3.7z M106.6,3.3
						c-0.2-0.1-1.1-0.2-1.4-0.2l-0.1,0.1c0,0.5-0.1,2.1-0.1,2.8l0.3-0.1c0.3-0.5,0.9-1.5,1.1-1.9l1.7,0.1v3.3c0,2.4,0,2.9,0,3.3
						l-1.4,0.5l-0.1,0.5c0.9,0,1.8,0,2.7,0c0.9,0,1.7,0,2.6,0l0.2-0.5l-1.6-0.5c0-0.3-0.1-0.5-0.1-3.7v-3l1.8-0.1
						c0.1,0.3,0.5,1.6,0.7,2l0.3-0.2c0.2-0.5,0.5-2.1,0.7-2.7l-0.1-0.1c-0.4,0-1.1,0.1-1.5,0.2H106.6z M119.5,0.6
						c1.4,0.5,1.4,0.5,1.7,1.1c-0.3,3-0.9,8.1-1.1,9l-1.3,0.7l-0.1,0.5c0.6,0,1.3,0,2,0c0.7,0,1.4,0,2.1,0l0.1-0.5l-1.6-0.7
						c0-1.1,0.3-5.6,0.5-8.2h0c2.4,5.7,3.2,7.4,4,9.5l0.4-0.1c2-4.9,3.3-7.6,4.2-9.7h0.1c0,2.8,0.1,5.9,0.1,8.6l-1.1,0.6l-0.1,0.5
						c0.8,0,1.7,0,2.5,0c0.8,0,1.7,0,2.5,0l0.1-0.5l-1.6-0.6c-0.1-0.6-0.4-7.6-0.4-9.5l1.5-0.6l0.1-0.5l-3.8,0c0,0.4,0,0.6-0.1,0.8
						c-1.5,3.3-3,6.2-3.5,7.2h0c-1.8-3.8-3.1-6.4-3.5-7.3c-0.1-0.1-0.1-0.3-0.1-0.7l-3.5,0L119.5,0.6z M135.7,3.7l1.3,0.5v3.1
						c0,2.1,0,3.3-0.1,3.4l-1.2,0.5l-0.2,0.4c0.8,0,1.7,0,2.5,0h2.6c0.8,0,1.6,0,2.5,0.1c0.2-0.7,0.5-2.1,0.5-2.5l-0.4-0.1
						c-0.4,0.4-1.2,1.4-1.6,1.9l-2.5-0.2c-0.1-0.8-0.1-2.3-0.1-3c0.6,0,2.5,0.2,2.8,0.2c0.2-0.1,0.8-0.8,0.9-1l-0.1-0.2
						c-0.9,0.1-2.3,0.2-3.5,0.2V4.1l2.4-0.1c0.2,0.3,0.6,1.3,0.8,1.7l0.4-0.2c0.1-0.6,0.3-1.8,0.4-2.3l-0.1-0.1
						c-0.5,0-1.3,0.1-1.5,0.2h-3.5c-0.7,0-1.4,0-2.2,0L135.7,3.7z M145.1,3.8l1.2,0.4v3.2c0,2,0,3.2-0.1,3.4l-1.1,0.5l-0.1,0.4
						c0.8,0,1.7,0.1,2.8,0.1c1.6,0,2.9-0.1,3.9-0.4c1.4-0.4,3.1-1.5,3.1-4c0-2.4-1.6-4.1-5.9-4.1c-1.9,0-3.4,0.2-3.8,0.2L145.1,3.8z
						 M148.5,3.9c1.2,0,2.1,0.2,2.9,0.8c0.9,0.7,1.2,1.6,1.2,2.7c0,1.2-0.3,2.1-1.1,2.8c-0.8,0.8-2.1,0.9-2.9,0.9
						c0-0.2-0.1-1.6-0.1-3.7V3.9z M155.7,3.7c0.7,0.3,1.1,0.5,1.3,0.7c0.8,1.2,1.8,2.7,2.2,3.3c0.1,0.2,0.2,0.3,0.2,0.5
						c0,2-0.1,2.5-0.1,2.6l-1.4,0.5l-0.1,0.5c0.9,0,1.8,0,2.7,0c0.8,0,1.7,0,2.5,0l0.1-0.5l-1.5-0.5c0-0.1-0.1-0.7-0.1-2.7
						c0-0.1,0-0.2,0.1-0.4c1.1-1.9,1.8-2.9,2.1-3.3c0.1-0.1,0.2-0.2,0.4-0.3l0.9-0.4l0.2-0.5c-0.5,0-1,0-1.5,0h-1.2l-0.2,0.5
						l0.5,0.4c-0.3,0.6-0.9,1.7-1.6,3h0c-1.1-1.8-1.6-2.8-1.7-3l0.3-0.4l0.2-0.5h-1.7c-0.7,0-1.5,0-2.2,0L155.7,3.7z M174.6,3.1
						c-0.3,0.1-0.9,0.2-1.4,0.5c-0.7-0.4-1.4-0.5-2.2-0.5c-2.2,0-5.2,1.3-5.2,4.5c0,3.1,2.7,4.4,5.3,4.4c0.8,0,1.9-0.2,2.5-0.3
						c0.2-0.2,0.7-1.2,1-2.1l-0.3-0.2c-0.5,0.4-1.2,1-2,1.7c-0.2,0.1-0.3,0.1-0.5,0.1c-2.4,0-3.6-1.8-3.6-3.6c0-2,1.2-3.5,3.5-3.5
						c0.5,0,1,0.1,1.3,0.3c0.2,0.6,0.5,1.3,0.7,1.7l0.3-0.1c0.1-0.2,0.6-1.8,0.7-2.6L174.6,3.1z M184.2,3.3h-6
						c-0.2,0-0.8-0.1-1.5-0.1l-0.1,0.1c0,0.5,0.2,2.1,0.2,2.8l0.4-0.1c0.3-0.5,0.7-1.4,0.9-1.9c0.9,0,2.6,0,3.2,0v0.1
						c-1.6,2.2-4.5,6.2-5.3,7.4l0.2,0.2c3.8,0,7.3,0.1,7.8,0.1c0.1-0.9,0.3-1.8,0.4-3l-0.3,0.1c-0.4,0.4-1.3,1.7-1.6,2.1
						c-0.6,0-2.8,0-3.4,0l0-0.1c1.9-2.8,4.7-6.8,5.1-7.4L184.2,3.3z M189.3,11.3l-1.2-0.6c-0.1-0.5-0.1-3.3-0.1-5.2h0
						c2.6,3.1,4.9,5.6,6.1,6.5l0.5-0.1c0-0.2,0.1-0.8,0.1-1.3c0-2.4,0.2-5.9,0.2-6.3l1.2-0.5l0.1-0.5c-0.6,0-1.2,0-1.9,0
						c-0.5,0-1,0-1.6,0l-0.2,0.5l1.2,0.6c0,0.6,0.1,4,0.1,4.4h-0.1c-1.6-1.7-2.7-2.8-4.4-4.7c-0.4-0.4-0.5-0.7-0.6-0.8l-2.9,0.1
						l-0.2,0.4c0.7,0.2,1.1,0.4,1.5,1c-0.1,3.7-0.2,5.5-0.3,5.9l-1.2,0.6l-0.1,0.5c0.6,0,1.2,0,1.8,0c0.6,0,1.2,0,1.7,0L189.3,11.3z
						 M196.9,3.7c0.7,0.3,1.1,0.5,1.3,0.7c0.8,1.2,1.8,2.7,2.2,3.3c0.1,0.2,0.2,0.3,0.2,0.5c0,2-0.1,2.5-0.1,2.6l-1.4,0.5l-0.1,0.5
						c0.9,0,1.8,0,2.7,0c0.8,0,1.7,0,2.5,0l0.1-0.5l-1.5-0.5c0-0.1-0.1-0.7-0.1-2.7c0-0.1,0-0.2,0.1-0.4c1.1-1.9,1.8-2.9,2.1-3.3
						c0.1-0.1,0.2-0.2,0.4-0.3l0.9-0.4l0.2-0.5c-0.5,0-1,0-1.5,0h-1.2l-0.2,0.5l0.5,0.4c-0.3,0.6-0.9,1.7-1.6,3h0
						c-1.1-1.8-1.6-2.8-1.7-3l0.3-0.4l0.2-0.5h-1.7c-0.7,0-1.5,0-2.2,0L196.9,3.7z"/>
				</g>
				<g id="Group-8" transform="translate(0.000000, -0.000000)">
					<g id="Clip-7">
					</g>
					<defs>
						<filter id="Adobe_OpacityMaskFilter_1_" filterUnits="userSpaceOnUse" x="0" y="0.5" width="31.3" height="41.7">
							<feColorMatrix  type="matrix" values="1 0 0 0 0  0 1 0 0 0  0 0 1 0 0  0 0 0 1 0"/>
						</filter>
					</defs>
					<mask maskUnits="userSpaceOnUse" x="0" y="0.5" width="31.3" height="41.7" id="mask-4_1_">
						<g filter="url(#Adobe_OpacityMaskFilter_1_)">
							<polygon id="path-3_1_" fill-rule="evenodd" clip-rule="evenodd" fill="#FFFFFF" points="0,0.5 31.3,0.5 31.3,42.2 0,42.2 
															"/>
						</g>
					</mask>
					<path id="Fill-6" mask="url(#mask-4_1_)" fill-rule="evenodd" clip-rule="evenodd" fill="#D0A53E" d="M31.3,1.9l-3.3,1
						c0.1,0.3,0.3,0.5,0.5,0.7l-1,1.7l-1-0.6c0,0-0.4,0.3-0.3,0.6c0.1,0.3,0.7,0.8,0.8,1l-0.3,0.6c-0.3-0.3-0.8-0.7-1.1-1.2
						c-0.2-0.2-0.3-0.5-0.4-0.7c-0.1-0.2-0.1-0.4,0-0.6c0,0,0,0,0-0.1c0.2-0.3,0.4-0.4,0.6-0.5c0.3-0.1,0.6,0,0.7,0.1
						C26.6,3.9,26.7,4,26.7,4c0.1,0.2,0.3,0.2,0.4,0.2c0.2-0.1,0.2-0.2,0.1-0.4c-0.1-0.2-0.2-0.3-0.5-0.4c-0.3-0.2-0.7-0.3-1.2-0.1
						c-0.3,0.1-0.7,0.3-1,0.8c0,0,0,0.1-0.1,0.1c-0.2,0.4-0.1,0.9,0,1.3c0.3,0.6,0.7,1.1,1.1,1.5c0,0,0.1,0.1,0.1,0.1
						c-0.6,0-1.2,0.3-1.5,0.9C24,8.5,24.2,9.4,24.8,10l-0.7,1.2h0h-8.4h0H9.4L7.7,8.4L5.3,9.8l0.8,1.4H0.6
						c0.1,5.1,0.2,18.9,7.9,26.6c-1.1,2.3-1.9,4.1-1.6,4.3c0.2,0.1,1.3-1.3,2.7-3.3c1.7,1.4,3.7,2.6,6.1,3.4h0h0h0
						c2.7-0.9,5-2.3,6.8-4c1.6,2.3,2.9,4.1,3.1,3.9c0.2-0.1-0.7-2.4-2-5.1c7-7.8,7-20.8,7.1-25.8v0h-5.4H25l0.5-0.9
						c0.8,0.3,1.7-0.1,2.1-0.8c0.3-0.6,0.3-1.2,0-1.7c0.1,0,0.1,0,0.2,0C28.3,8,29,8.1,29.6,8.1C30,8,30.5,7.8,30.7,7.4
						c0,0,0-0.1,0.1-0.1C31,6.8,31,6.4,30.9,6.1c-0.1-0.5-0.4-0.8-0.8-1C29.9,5,29.7,5,29.5,5c-0.2,0-0.3,0.2-0.3,0.3
						c0,0.2,0.2,0.3,0.3,0.3c0,0,0.1,0,0.3,0.1c0.2,0.1,0.4,0.3,0.4,0.6c0,0.2,0.1,0.5-0.1,0.8c0,0,0,0,0,0.1
						c-0.1,0.2-0.3,0.3-0.5,0.3c-0.2,0.1-0.5,0.1-0.8,0c-0.6-0.1-1.2-0.2-1.6-0.3l0.3-0.6c0.2,0,0.9,0.2,1.2,0.2
						c0.3-0.1,0.3-0.6,0.3-0.6l-1-0.6L29,3.9c0.3,0.1,0.7,0.1,1,0C30.9,3.6,31.4,2.8,31.3,1.9L31.3,1.9z M25.3,17.6
						c0.1,0.2,0.1,0.5,0.1,0.7c0,0.9-0.1,2.7-0.1,3.2c0,0.5-0.1,1,0.1,1c0.2,0,0.6-0.3,0.6-0.3s0.1,0.5,0,1
						c-0.1,0.3-0.4,0.6-0.8,0.6c-0.5,0-0.8-0.1-0.8-0.2c-0.1-0.1-0.3-0.5-0.3-0.5s-0.1,1.7,0,2.1c0.1,0.3,0.3,0.8,0.6,1.2
						c0.1,0.1,0.2,0.2,0.4,0.3c0.2,0.1,0.4,0.1,0.5,0.1c0.1,0,0.1,0,0.1,0c0,0,0,0,0,0s-0.3,0.4-0.6,0.6c-0.5,0.3-0.9,0.3-1.2,0.1
						c-0.3-0.2-0.8-1-1-1.3c-0.2-0.2-0.5-1.2-0.5-1.2s-0.1,1.4-0.1,1.9c0,0,0,0.1,0,0.2c0,0.2,0,0.4,0.1,0.6c0,0.4,0.1,0.8,0.2,1.1
						c0,0.2,0.1,0.4,0.1,0.5c0,0.2,0.2,1.6,0.6,2.1c0.1,0.1,0.5,0.3,0.6,0.4c0.1,0,0.1,0.1,0.1,0.1s0,0-0.1,0.1
						c-0.2,0.1-0.5,0.4-0.8,0.5c-0.4,0-0.7-0.2-1-0.5c0-0.1-0.1-0.2-0.2-0.3c-0.1-0.3-0.3-0.7-0.5-1.1c-0.1-0.2-0.1-0.4-0.2-0.6
						c-0.2-0.8-0.7-2.8-0.7-2.8l-0.3-1l-0.1,3.1l-1.3-2.8c0,0,0,0.5,0.1,1c0,0.3,0,0.7,0.1,0.9c0,0.8,0.4,1.6,0.8,2
						c-0.1,0-0.2,0-0.3,0c-0.1,0-0.2,0-0.2,0c-0.1,0-0.2,0-0.2,0s0,0,0,0.1c0,0.1,0,0.2,0.1,0.3c0,0.1,0.1,0.3,0.1,0.5
						c0.1,0.2,0.1,0.3,0.2,0.5c0.2,0.4,0.4,0.9,0.7,1.3c0.1,0.1,0.1,0.2,0.2,0.3c0,0.1,0.2,0.1,0.3,0c0,0,0.1,0,0.1-0.1
						c0-0.1,0.2-0.2,0.3-0.3c0.1-0.1,0.2-0.3,0.3-0.4c0,0,0.1-0.1,0.1-0.1c0.1-0.1,0.2-0.2,0.4-0.2c0.2,0,0.2,0,0.5,0.1
						c-0.2,0.1-0.3,0.1-0.3,0.2c-0.1,0.1-0.1,0.2-0.2,0.3c-0.2,0.2-0.8,0.6-0.8,0.6s0,0,0,0c0.1,0,0.2,0,0.3,0
						c0.1,0,0.2-0.1,0.3-0.1c0.1-0.1,0.2-0.1,0.3-0.2c0.1-0.1,0.3-0.2,0.5-0.2c0.2,0,0.3,0,0.4,0.2c0.1,0.1,0.1,0.2,0.1,0.2
						s-0.2-0.1-0.3-0.1c-0.1,0-0.2,0.1-0.3,0.1c-0.1,0.1-0.3,0.2-0.5,0.3c-0.2,0.1-0.4,0.1-0.6,0.1c-0.1,0-0.1,0-0.2,0
						c-0.1,0-0.2-0.1-0.2-0.1s0.1,0.3,0.2,0.3c0.1,0,0.2,0.1,0.3,0.1c0.1,0,0.2,0,0.3,0c0.1,0,0.2,0,0.3,0c0.1,0,0.1,0,0.2,0
						c0.1,0,0.1,0,0.2,0.1c0.2,0.1,0.1,0.5,0.1,0.5s0,0-0.1-0.1c-0.1,0-0.2-0.1-0.4-0.1c-0.2,0-0.5,0.1-0.7,0
						c-0.1,0-0.3-0.1-0.4-0.1c-0.1-0.1-0.2-0.1-0.3-0.2c-0.2-0.3-0.6-0.5-0.6-0.5s0,0-0.1,0c0,0-0.1,0-0.1-0.1
						c-0.1-0.1-0.2-0.3-0.2-0.3s0,0-0.1,0c-0.1,0-0.2,0-0.2,0c-0.1,0-0.2,0-0.3,0c-0.1,0-0.2,0-0.3-0.1c-0.1,0-0.3-0.1-0.5,0
						c-0.1,0-0.1,0-0.2,0.1c-0.1,0-0.1,0.1-0.1,0.1c0,0,0,0,0,0s0-0.1,0.1-0.3c0.1-0.1,0.2-0.3,0.3-0.3c0.3-0.1,0.3,0,0.6,0.1
						c0.2,0.1,0.4,0.1,0.5,0.1c0,0,0,0,0,0h0.2c0,0-0.1-0.2-0.2-0.4c-0.1-0.2-0.3-0.5-0.5-0.8c-0.2-0.3-0.5-0.9-0.6-0.9
						c-0.2,0-0.5,0.6-0.5,0.6s0,0,0-0.1c0-0.1-0.1-0.4-0.2-0.6c-0.1-0.3-0.2-0.5-0.3-0.8c-0.2-0.4-0.4-0.6-0.4-0.6s-0.6,2-0.5,2.4
						c0.1,0,0.2,0,0.3,0c0.3,0.1,0.7,0.2,0.6,0.6c0,0.2-0.1,0.3-0.3,0.4c-0.1,0.1-0.2,0.1-0.3,0.2c-0.1,0-0.2,0.1-0.2,0.1
						c0,0,0,0,0,0s0,1.3,0.2,1.9c0.2,0.4,0.3,0.6,0.6,0.7c0,0,0.1,0,0.2,0.1c0.2,0.1,0.4,0.2,0.7,0.2c0.3,0,0.7-0.3,0.7-0.4
						c0.2-0.5,0.2-0.9,0.2-0.9s0-0.1,0.4,0c0.1,0,0.2,0.1,0.2,0.1c0.2,0.2,0.4,0.6,0.5,0.9c0,0.3,0,0.8-0.3,1.1
						c-0.2,0.2-0.5,0.4-0.8,0.4c-0.1,0-0.2,0-0.3,0c-0.2,0-0.4,0-0.6-0.1c-0.3-0.1-0.6-0.2-0.6-0.2s0,0,0.1,0.1
						c0.1,0.2,0.3,0.5,0,0.7c-0.1,0.1-0.3,0-0.4,0c-0.1-0.1-0.2-0.1-0.2-0.1s0.2,0.4,0.2,0.7c0,0.1,0,0.2-0.1,0.2
						c-0.3,0.3-0.8-0.5-0.8-0.5s0,0.3-0.2,0.5c-0.1,0.1-0.2,0.3-0.4,0.3v0h0c0,0-0.1,0-0.1,0v0c-0.1,0-0.1,0-0.2-0.1
						c-0.1-0.1-0.2-0.1-0.2-0.2c-0.1-0.1-0.1-0.2-0.1-0.3c0-0.1-0.1-0.2-0.1-0.2c0,0,0,0,0,0s-0.5,0.8-0.8,0.5
						c-0.3-0.3,0.1-0.9,0.1-0.9s-0.4,0.3-0.6,0.2c-0.3-0.2,0.1-0.8,0.1-0.8s-0.7,0.3-1.2,0.3c-0.3,0-0.8-0.1-1-0.4
						c-0.3-0.3-0.3-0.8-0.3-1.1c0-0.3,0.2-0.7,0.5-0.9c0.1-0.1,0.2-0.1,0.2-0.1c0.4-0.1,0.4,0,0.4,0s0,0.5,0.2,0.9
						c0.1,0.2,0.4,0.4,0.7,0.4c0.3,0,0.6-0.1,0.7-0.2c0.1,0,0.1-0.1,0.2-0.1c0.3-0.1,0.4-0.3,0.6-0.7c0.3-0.7,0.2-1.9,0.2-1.9
						s-0.9-0.3-0.9-0.7c0-0.6,0.6-0.6,0.9-0.7c0.2-0.4-0.5-2.4-0.5-2.4s-0.5,0.7-0.7,1.4c-0.1,0.2-0.2,0.6-0.2,0.6s-0.3-0.6-0.5-0.6
						c-0.1,0.1-0.3,0.6-0.6,0.9C12.2,32.3,12,33,12,33h0.2c0,0,0.2,0,0.5-0.1c0.2-0.1,0.3-0.2,0.6-0.1c0.2,0.1,0.4,0.6,0.4,0.6
						s-0.1-0.1-0.2-0.2c-0.1,0-0.1-0.1-0.2-0.1c-0.2,0-0.3,0-0.5,0c-0.1,0-0.2,0-0.3,0.1c-0.1,0-0.2,0-0.3,0c-0.1,0-0.2,0-0.2,0
						c-0.1,0-0.1,0-0.1,0s-0.1,0.2-0.2,0.3c-0.1,0-0.1,0-0.1,0.1s-0.1,0-0.1,0s-0.4,0.3-0.6,0.5c-0.1,0.1-0.2,0.2-0.3,0.2
						c-0.1,0.1-0.3,0.1-0.4,0.1c-0.2,0-0.5,0-0.7,0c-0.2,0-0.3,0-0.4,0.1c-0.1,0-0.1,0.1-0.1,0.1s0-0.3,0.1-0.5c0.2-0.2,0.5,0,0.7,0
						c0.2,0,0.4,0,0.6-0.1c0.1,0,0.2-0.3,0.2-0.3s-0.1,0.1-0.2,0.1c-0.3,0.1-0.6,0-0.8-0.1c-0.2-0.1-0.4-0.3-0.5-0.3
						c-0.1-0.1-0.2-0.1-0.3-0.1c-0.1,0-0.3,0.1-0.3,0.1s0-0.1,0.1-0.2C8.7,33,8.8,33,9,33c0.2,0,0.4,0.1,0.5,0.2
						c0.1,0,0.2,0.1,0.3,0.2c0.1,0.1,0.2,0.1,0.3,0.1c0.1,0,0.3,0,0.3,0c0,0,0,0,0,0s-0.6-0.4-0.8-0.6c-0.2-0.3-0.2-0.4-0.5-0.5
						c0.2-0.1,0.3-0.1,0.5-0.1c0.3,0,0.3,0.1,0.5,0.3c0.1,0.1,0.5,0.6,0.6,0.7c0,0,0.1,0.1,0.1,0.1c0.1,0.1,0.3,0,0.3,0
						c0.1-0.1,0.1-0.2,0.2-0.3c0.2-0.4,0.4-0.9,0.7-1.3c0.4-0.7,0.4-1.5,0.4-1.5s-0.4-0.1-0.8,0c0.4-0.4,0.8-1.2,0.8-2
						c0-0.7,0.1-1.9,0.1-1.9l-1.3,2.8l-0.1-3.1l-0.3,1c0,0-0.6,2-0.7,2.8c-0.2,0.8-0.6,1.8-0.8,2c-0.2,0.3-0.6,0.5-1,0.5
						c-0.4,0-0.9-0.5-0.9-0.5s0.6-0.3,0.7-0.5c0.4-0.5,0.6-1.9,0.6-2.1c0.1-0.4,0.3-2,0.3-2.4c0-0.5-0.1-1.9-0.1-1.9s-0.4,1-0.5,1.2
						c-0.2,0.3-0.7,1.1-1,1.3c-0.4,0.2-0.7,0.2-1.2-0.1c-0.3-0.1-0.6-0.6-0.6-0.6s0.2,0.1,0.6-0.1c0.5-0.2,0.9-1.1,1-1.4
						c0.1-0.5,0-2.1,0-2.1S7,23.5,6.9,23.6c-0.1,0.1-0.4,0.2-0.8,0.2c-0.4,0-0.7-0.3-0.8-0.6c-0.1-0.5,0-1,0-1s0.3,0.3,0.6,0.3
						c0.2,0,0.2-0.5,0.1-1c0-0.5-0.1-2.3-0.1-3.2c0-0.9,0.8-2,1.1-2.4c0.6-0.7,1.3-0.9,2-1.1c0.6-0.1,1.3,0.1,1.8,0.5
						c0.4,0.3,0.6,0.6,0.6,1.4c0,0.6-1.3,1.8-1.4,1.9c-0.1,0.2-1,0.9-1,1.1C8.9,20,8.9,20,9.1,20s0.5,0.1,0.6,0.4
						c0.1,0.3-0.1,0.7-0.1,0.7s0.4-0.1,0.8,0.3c0.3,0.3,0.3,0.7,0.3,0.7s0.4-0.3,0.8,0c0.3,0.2,0.2,0.6,0.2,0.6h0.8c0,0,0.3-1,1-1.3
						c0.6-0.3,0.8-0.8,0.9-1.1l0-0.2c-0.2,0.1-0.6,0.3-1.1,0.2c0.2-0.1,0.9-0.6,1-1.1c0.1-0.8-0.3-1.8-0.8-2.6c-0.4-0.8-1.2-1-1.2-1
						s0.2-0.2,0.6-0.2c0.6,0.1,1.3,1.1,1.7,2.5c0.1,0.2,0.2,0.5,0.2,0.5s-0.5-3-1.8-3.6c-0.5-0.2-0.8,0.6-0.8,0.6s-0.5-0.8,0-1.2
						c0.5-0.4,0.6-0.4,1-0.3c0.3,0,1.5,0.9,1.5,0.9s0.4-0.4,0.7-0.5c0.6,0,1.1,0.3,1.3,0.5c0.2,0.1,0.3,0.2,0.3,0.3
						c0.2,0.3,0.7,0.8,0.9,1.4c0.1,0.3,0.1,0.6,0.1,0.8c0,0.2,0,0.4-0.1,0.7c0,0.2-0.1,0.3-0.3,0.4c-0.1,0.1-0.1,0.1-0.2,0.2
						c-0.1,0.1-0.1,0.1-0.2,0.2C17,18.9,16.9,19,17,19.2c0.3,0.7,0.8,1,1,1.1c-0.6,0.1-1.1-0.3-1.1-0.3s0,0.2,0.2,0.5
						s0.4,0.6,0.8,0.9c0.2,0.1,0.3,0.2,0.4,0.4c0.1,0.1,0.2,0.3,0.3,0.4c0,0.1,0.1,0.1,0.1,0.2c0.1,0.2,0.1,0.3,0.1,0.3h0.8
						c0,0,0-0.4,0.2-0.6c0.1-0.1,0.2-0.1,0.3-0.1c0.2,0,0.3,0,0.4,0.1c0,0,0.1,0,0.1,0s0-0.1,0-0.3c0-0.1,0.1-0.3,0.3-0.5
						c0.4-0.3,0.8-0.3,0.8-0.3s-0.3-0.4-0.1-0.7c0.1-0.3,0.5-0.4,0.6-0.4c0.1,0,0.2-0.1,0.2-0.3c0-0.1-0.2-0.3-0.5-0.6
						c-0.2-0.2-0.5-0.5-0.6-0.5c-0.1-0.1-0.4-0.4-0.7-0.8c-0.3-0.4-0.6-0.8-0.7-1.1c0-0.8,0.2-1.1,0.6-1.4c0.5-0.4,1.1-0.7,1.8-0.5
						c0.3,0.1,0.7,0.2,1,0.3c0.3,0.2,0.7,0.4,1,0.7C24.6,16.2,25.1,16.9,25.3,17.6L25.3,17.6z M26.2,7.5l-1.1,2
						c-0.4-0.4-0.5-1-0.2-1.4C25.2,7.6,25.7,7.4,26.2,7.5L26.2,7.5z M27.1,9.3c-0.3,0.5-0.8,0.7-1.3,0.6l1.1-2
						C27.3,8.2,27.4,8.8,27.1,9.3L27.1,9.3z M23.3,17.3c0.1-0.1,0-0.2,0-0.4c-0.1-0.1-0.2-0.2-0.3-0.2c-0.1,0-0.2,0-0.3,0
						c0,0-0.1,0.1-0.1,0.1c-0.1,0.1-0.1,0.2-0.1,0.3c0,0.1,0,0.1,0.1,0.1c0,0.1,0.1,0.1,0.2,0.2c-0.1,0-0.1,0-0.2,0.1
						c0,0-0.1,0.1-0.1,0.1c-0.1,0.1-0.1,0.3,0,0.4c0.1,0.2,0.4,0.3,0.6,0.1c0.2-0.1,0.2-0.3,0.2-0.4c0.1,0.2,0.4,0.2,0.6,0.1
						c0.2-0.1,0.3-0.4,0.2-0.5c-0.1-0.1-0.3-0.2-0.4-0.2C23.4,17.3,23.4,17.3,23.3,17.3C23.3,17.3,23.3,17.3,23.3,17.3L23.3,17.3z
						 M23.1,19.6c-0.2,1.5-1,2.8-2.3,3.8c-0.3,0.2-0.7,0.5-1,0.7c-0.2,0.1-0.4,0.2-0.6,0.3c-0.4,0.2-0.8,0.3-1.2,0.4
						c-0.6,0.2-1.3,0.3-2,0.3c0-0.1-0.1-0.8-0.1-1.2c0.6,0,1.3,0.1,1.3,0.1v-0.6c0,0-0.8,0.1-1.3,0.1c0-0.5,0.1-1.2,0.1-1.2h-0.7
						c0,0,0.1,0.7,0.1,1.2c-0.5,0-1.3-0.1-1.3-0.1V24c0,0,0.8-0.1,1.3-0.1c0,0.4-0.1,1.1-0.1,1.2c-3.8-0.1-6.8-2.5-7.2-5.5
						c0,0.2,0,0.4,0,0.6c0,3.4,3.4,6.1,7.5,6.1s7.5-2.7,7.5-6.1C23.1,20,23.1,19.8,23.1,19.6L23.1,19.6z M15.7,15.3
						c0.1-0.1,0-0.3-0.2-0.5c-0.2-0.1-0.3,0-0.4,0.1c-0.1,0.2-0.1,0.2,0,0.3c0.2,0.2,0.3,0.2,0.4,0.3C15.6,15.5,15.7,15.4,15.7,15.3
						L15.7,15.3z M8.8,18.1c0.1-0.2,0-0.4-0.2-0.5c-0.1,0-0.1,0-0.2-0.1c0.1,0,0.2-0.1,0.2-0.2c0.1-0.2,0-0.4-0.2-0.5
						c-0.2-0.1-0.5,0-0.6,0.1c-0.1,0.1-0.1,0.2,0,0.4c0,0,0,0,0,0c-0.2-0.1-0.5,0-0.6,0.1c-0.1,0.2,0,0.4,0.2,0.5
						c0.2,0.1,0.4,0,0.6-0.1c0,0.2,0,0.3,0.2,0.4C8.5,18.4,8.7,18.3,8.8,18.1L8.8,18.1z M27.9,2.5l3.3-1c-0.3-0.8-1.2-1.3-2.1-1
						C28.2,0.8,27.7,1.7,27.9,2.5L27.9,2.5z M19.9,4.8c0.1-2.3-1.8-4.3-4.1-4.3c-2.3-0.1-4.3,1.8-4.3,4.1c-0.1,2.3,1.8,4.3,4.1,4.3
						C17.9,9,19.8,7.1,19.9,4.8L19.9,4.8z M19.2,4.8c0,1.9-1.7,3.5-3.6,3.4c-1.9,0-3.5-1.7-3.4-3.6c0-1.9,1.7-3.5,3.6-3.4
						C17.7,1.2,19.2,2.9,19.2,4.8L19.2,4.8z M16.7,6.9c1.6-3.4,0-0.1,1.7-3.6c-1.1,0,0.2,0-0.9,0l-1,2.3l-0.3-1.3l0.7-2l-0.8,0
						l-0.4,0.9l-0.4-0.9l-0.9,0l0.7,2l-0.4,1.1l-0.8-2.2l-0.9,0L14.3,7h0.9l0.4-1l0.4,1L16.7,6.9z M7.5,7.8l0.4-0.2L6.1,5.8L5.7,6
						l0.5,1.5L5.1,6.3L4.6,6.5L5.1,8L4,6.9L3.6,7.1l0.7,2.4l0.4-0.2L4.3,7.8l1.1,1.1l0.4-0.2L5.4,7.3l1,1.1l0.4-0.2L6.4,6.7L7.5,7.8
						z M2.7,6.5l3.2-1.9L5.5,3.9L2.3,5.8L2.7,6.5z M3.9,1.5l0.7-0.4L4.2,0.5L3.1,1.1l0.4,1.5l-1-1.2L1.9,1.7l0.4,1.5L1.3,2L0,2.7
						l0.4,0.6L1.2,3l1.5,1.7l0.6-0.3L2.9,2.9l1,1.1l0.6-0.3L3.9,1.5z"/>
				</g>
				<path id="Fill-9" fill-rule="evenodd" clip-rule="evenodd" fill="#1D1D1B" d="M26,22.2c0,0-0.3,0.3-0.6,0.3
					c-0.2,0-0.2-0.5-0.1-1c0-0.5,0.1-2.3,0.1-3.2c0-0.9-0.8-2-1.1-2.4c-0.6-0.7-1.3-0.9-2-1.1c-0.6-0.1-1.3,0.1-1.8,0.5
					c-0.4,0.3-0.6,0.6-0.6,1.4c0,0.6,1.3,1.8,1.4,1.9c0.1,0.2,1,0.9,1,1.1c0,0.2-0.1,0.2-0.2,0.3c-0.1,0-0.5,0.1-0.6,0.4
					c-0.1,0.3,0.1,0.7,0.1,0.7s-0.4-0.1-0.8,0.3c-0.3,0.3-0.3,0.7-0.3,0.7s-0.4-0.3-0.8,0c-0.3,0.2-0.2,0.6-0.2,0.6h-0.8
					c0,0-0.3-1-1-1.3c-0.9-0.5-1-1.3-1-1.3s0.6,0.4,1.1,0.3c-0.2-0.1-0.7-0.4-1-1.1c-0.1-0.2,0-0.3,0.2-0.5c0.2-0.2,0.5-0.5,0.6-0.8
					c0.2-0.6,0.1-0.9,0-1.5c-0.1-0.5-0.6-1.1-0.9-1.4c0,0-0.2-0.2-0.3-0.3c-0.2-0.2-0.7-0.5-1.3-0.5c-0.3,0-0.7,0.5-0.7,0.5
					s-1.2-0.9-1.5-0.9c-0.4,0-0.5-0.1-1,0.3c-0.5,0.4,0,1.2,0,1.2s0.3-0.8,0.8-0.6c1.3,0.6,1.8,3.6,1.8,3.6s-0.1-0.4-0.2-0.5
					c-0.5-1.5-1.2-2.5-1.7-2.5c-0.4,0-0.6,0.2-0.6,0.2s0.8,0.3,1.2,1c0.5,0.9,0.9,1.9,0.8,2.6c-0.1,0.6-0.8,1-1,1.1
					c0.4,0.1,0.9-0.1,1.1-0.2l0,0.2c-0.1,0.3-0.3,0.8-0.9,1.1c-0.6,0.4-1,1.3-1,1.3h-0.8c0,0,0-0.4-0.2-0.6c-0.3-0.2-0.8,0-0.8,0
					s0-0.4-0.3-0.7c-0.4-0.3-0.8-0.3-0.8-0.3s0.3-0.4,0.1-0.7c-0.1-0.3-0.5-0.4-0.6-0.4c-0.1,0-0.2-0.1-0.2-0.3c0-0.2,0.9-0.9,1-1.1
					c0.1-0.2,1.4-1.4,1.4-1.9c0-0.8-0.2-1.1-0.6-1.4c-0.5-0.4-1.1-0.7-1.8-0.5c-0.7,0.2-1.4,0.4-2,1.1c-0.4,0.4-1.1,1.5-1.1,2.4
					c0,0.9,0.1,2.7,0.1,3.2c0,0.5,0.1,1-0.1,1c-0.2,0-0.6-0.3-0.6-0.3s-0.1,0.5,0,1c0.1,0.3,0.4,0.6,0.8,0.6c0.5,0,0.8-0.1,0.8-0.2
					c0.1-0.1,0.3-0.5,0.3-0.5s0.1,1.7,0,2.1c-0.1,0.3-0.5,1.2-1,1.4c-0.4,0.2-0.6,0.1-0.6,0.1s0.3,0.4,0.6,0.6
					c0.5,0.3,0.9,0.3,1.2,0.1c0.3-0.2,0.8-1,1-1.3C8.6,25.9,9,24.9,9,24.9s0.1,1.4,0.1,1.9c0,0.4-0.2,2-0.3,2.4
					c0,0.2-0.2,1.6-0.6,2.1c-0.1,0.2-0.7,0.5-0.7,0.5s0.5,0.5,0.9,0.5c0.4,0,0.7-0.2,1-0.5c0.2-0.2,0.6-1.2,0.8-2
					c0.2-0.8,0.7-2.8,0.7-2.8l0.3-1l0.1,3.1l1.3-2.8c0,0-0.1,1.2-0.1,1.9c0,0.8-0.4,1.6-0.8,2c0.4-0.1,0.8,0,0.8,0s0,0.8-0.4,1.5
					c-0.3,0.5-0.6,1.3-0.9,1.6c-0.1,0.1-0.3,0.1-0.4-0.1s-0.4-0.6-0.6-0.7c-0.2-0.2-0.2-0.3-0.5-0.3c-0.2,0-0.2,0-0.5,0.1
					c0.4,0.1,0.3,0.2,0.5,0.5c0.2,0.2,0.8,0.7,0.8,0.7s-0.2,0.1-0.4,0c-0.1,0-0.5-0.2-0.6-0.3C9.4,33.1,9.2,33,9,33
					c-0.2,0-0.3,0-0.4,0.2c-0.1,0.1-0.1,0.2-0.1,0.2s0.2-0.1,0.3-0.1c0.1,0,0.2,0.1,0.3,0.1c0.1,0.1,0.3,0.2,0.5,0.3
					c0.2,0.1,0.5,0.2,0.8,0.1c0.1,0,0.2-0.1,0.2-0.1S10.6,34,10.5,34c-0.2,0.1-0.4,0.1-0.6,0.1c-0.2,0-0.5-0.1-0.7,0
					C9,34.3,9,34.6,9,34.6s0.2-0.2,0.5-0.1c0.2,0,0.5,0.1,0.7,0c0.3-0.1,0.6-0.2,0.7-0.4c0.2-0.3,0.6-0.5,0.6-0.5s0.1,0,0.2-0.1
					c0.1-0.1,0.2-0.3,0.2-0.3s0.2,0,0.4,0.1c0.2,0,0.3,0,0.5-0.1c0.2,0,0.4-0.1,0.6,0.1c0.1,0.1,0.2,0.2,0.2,0.2s-0.1-0.5-0.4-0.6
					c-0.3-0.1-0.3,0-0.6,0.1C12.5,33,12.3,33,12.3,33H12c0,0,0.2-0.7,0.6-1.2c0.2-0.3,0.5-0.9,0.6-0.9c0.2,0,0.5,0.6,0.5,0.6
					s0.1-0.4,0.2-0.6c0.2-0.7,0.7-1.4,0.7-1.4s0.6,2,0.5,2.4c-0.3,0.1-0.9,0.1-0.9,0.7c0,0.5,0.9,0.7,0.9,0.7s0,1.3-0.2,1.9
					c-0.2,0.4-0.3,0.6-0.6,0.7c-0.2,0.1-0.5,0.3-0.9,0.2c-0.3,0-0.7-0.3-0.7-0.4c-0.2-0.5-0.2-0.9-0.2-0.9s0-0.1-0.4,0
					c-0.3,0.1-0.7,0.6-0.7,1c0,0.3,0,0.8,0.3,1.1c0.2,0.3,0.7,0.4,1,0.4c0.5,0,1.2-0.3,1.2-0.3s-0.4,0.5-0.1,0.8
					c0.2,0.2,0.6-0.2,0.6-0.2s-0.4,0.6-0.1,0.9C14.5,38.8,15,38,15,38s0.2,0.7,0.6,0.8v0c0,0,0.1,0,0.1,0h0c0.4-0.1,0.5-0.8,0.5-0.8
					s0.5,0.8,0.8,0.5c0.3-0.3-0.1-0.9-0.1-0.9s0.4,0.3,0.6,0.2c0.3-0.2-0.1-0.8-0.1-0.8s0.7,0.3,1.2,0.3c0.3,0,0.8-0.1,1-0.4
					c0.3-0.3,0.3-0.8,0.3-1.1c0-0.4-0.4-0.9-0.7-1c-0.4-0.1-0.4,0-0.4,0s0,0.5-0.2,0.9c-0.1,0.2-0.4,0.4-0.7,0.4
					c-0.4,0-0.7-0.1-0.9-0.2c-0.3-0.1-0.4-0.3-0.6-0.7c-0.3-0.7-0.2-1.9-0.2-1.9s0.9-0.3,0.9-0.7c0-0.6-0.6-0.6-0.9-0.7
					c-0.2-0.4,0.5-2.4,0.5-2.4s0.5,0.7,0.7,1.4c0.1,0.2,0.2,0.6,0.2,0.6s0.3-0.6,0.5-0.6c0.1,0.1,0.3,0.6,0.6,0.9
					c0.4,0.6,0.6,1.2,0.6,1.2H19c0,0-0.2,0-0.5-0.1c-0.2-0.1-0.3-0.2-0.6-0.1c-0.2,0.1-0.4,0.6-0.4,0.6s0.1-0.1,0.2-0.2
					c0.2-0.2,0.5-0.1,0.6-0.1c0.2,0,0.3,0.1,0.5,0.1c0.2,0,0.4-0.1,0.4-0.1s0.1,0.2,0.2,0.3s0.2,0.1,0.2,0.1s0.4,0.3,0.6,0.5
					c0.1,0.2,0.4,0.3,0.7,0.4c0.2,0,0.5,0,0.7,0c0.3,0,0.5,0.1,0.5,0.1s0-0.3-0.1-0.5c-0.2-0.2-0.5,0-0.7,0c-0.2,0-0.4,0-0.6-0.1
					c-0.1,0-0.2-0.3-0.2-0.3s0.1,0.1,0.2,0.1c0.3,0.1,0.6,0,0.8-0.1c0.2-0.1,0.4-0.3,0.5-0.3c0.1-0.1,0.2-0.1,0.3-0.1
					c0.1,0,0.3,0.1,0.3,0.1s0-0.1-0.1-0.2C22.5,33,22.4,33,22.2,33s-0.4,0.1-0.5,0.2c-0.1,0.1-0.4,0.3-0.6,0.3c-0.2,0.1-0.4,0-0.4,0
					s0.6-0.4,0.8-0.7c0.2-0.3,0.2-0.4,0.5-0.5c-0.2-0.1-0.3-0.1-0.5-0.1c-0.3,0-0.3,0.1-0.5,0.3c-0.1,0.1-0.5,0.6-0.6,0.7
					c-0.1,0.1-0.4,0.1-0.4,0.1c-0.3-0.3-0.6-1-0.9-1.6c-0.4-0.7-0.4-1.5-0.4-1.5s0.4-0.1,0.8,0c-0.4-0.4-0.8-1.2-0.8-2
					c0-0.7-0.1-1.9-0.1-1.9l1.3,2.8l0.1-3.1l0.3,1c0,0,0.6,2,0.7,2.8c0.2,0.8,0.6,1.8,0.8,2c0.2,0.3,0.6,0.5,1,0.5
					c0.4,0,0.9-0.5,0.9-0.5s-0.6-0.3-0.7-0.5c-0.4-0.5-0.6-1.9-0.6-2.1c-0.1-0.4-0.3-2-0.3-2.4c0-0.5,0.1-1.9,0.1-1.9s0.4,1,0.5,1.2
					c0.2,0.3,0.7,1.1,1,1.3c0.4,0.2,0.7,0.2,1.2-0.1c0.3-0.1,0.6-0.6,0.6-0.6s-0.2,0.1-0.6-0.1c-0.5-0.2-0.9-1.1-1-1.4
					c-0.1-0.5,0-2.1,0-2.1s0.3,0.4,0.3,0.5c0.1,0.1,0.4,0.2,0.8,0.2c0.4,0,0.7-0.3,0.8-0.6C26.1,22.8,26,22.2,26,22.2 M8.8,18.1
					c-0.1,0.2-0.4,0.3-0.6,0.1C8.1,18.2,8,18,8.1,17.8C7.9,18,7.7,18.1,7.5,18c-0.2-0.1-0.3-0.4-0.2-0.5c0.1-0.2,0.4-0.3,0.6-0.1
					c0,0,0,0,0,0c-0.1-0.1,0-0.2,0-0.4c0.1-0.2,0.4-0.3,0.6-0.1c0.2,0.1,0.3,0.4,0.2,0.5c0,0.1-0.1,0.1-0.2,0.2c0.1,0,0.1,0,0.2,0.1
					C8.9,17.7,8.9,17.9,8.8,18.1 M15.7,15.3c0,0.1-0.1,0.1-0.1,0.2c-0.1-0.1-0.2-0.2-0.4-0.3c-0.1-0.1-0.2-0.1,0-0.3
					c0.1-0.1,0.2-0.2,0.4-0.1C15.7,15,15.8,15.2,15.7,15.3 M23.1,19.6c0,0.2,0,0.4,0,0.6c0,3.4-3.4,6.1-7.5,6.1s-7.5-2.7-7.5-6.1
					c0-0.2,0-0.4,0-0.6c0.4,3,3.4,5.3,7.2,5.5c0-0.1,0.1-0.8,0.1-1.2c-0.5,0-1.3,0.1-1.3,0.1v-0.6c0,0,0.8,0.1,1.3,0.1
					c0-0.5-0.1-1.2-0.1-1.2h0.7c0,0-0.1,0.7-0.1,1.2c0.5,0,1.3-0.1,1.3-0.1V24c0,0-0.7-0.1-1.3-0.1c0,0.5,0.1,1.1,0.1,1.2
					C19.7,24.9,22.7,22.6,23.1,19.6 M23.7,18c-0.2,0.1-0.4,0-0.6-0.1c0,0.2,0,0.3-0.2,0.4c-0.2,0.1-0.5,0-0.6-0.1
					c-0.1-0.2,0-0.4,0.2-0.5c0.1,0,0.1,0,0.2-0.1c-0.1,0-0.2-0.1-0.2-0.2c-0.1-0.2,0-0.4,0.2-0.5c0.2-0.1,0.5,0,0.6,0.1
					c0.1,0.1,0.1,0.2,0,0.4c0,0,0,0,0,0c0.2-0.1,0.5,0,0.6,0.1C24,17.6,23.9,17.9,23.7,18"/>
			</g>
		</g>
	</g>
</g>
</svg>
