<svg version="1.2" baseProfile="tiny-ps" xmlns="http://www.w3.org/2000/svg" viewBox="0 0 11610 1998" width="11610" height="1998"><title>Gdansk-Tech-Logo-Poziom-Biały-RGB-svg</title><defs><clipPath clipPathUnits="userSpaceOnUse" id="cp1"><path d="M-3015 -3415L14623 -3415L14623 5404L-3015 5404L-3015 -3415Z" /></clipPath></defs><style>tspan { white-space:pre }.shp0 { fill: none } .shp1 { fill: #ffffff } </style><g ><g ><g ></g><g ></g></g></g><g ><g ><g ><g clip-path="url(#cp1)"><g ><g ><g ><g ><path class="shp0" d="M9250 704L9800 704L9800 1412L9250 1412L9250 704Z" /><path fill-rule="evenodd" class="shp1" d="M9250 818L9250 704L9799 704L9799 819L9588 819L9588 1411L9459 1411L9459 819L9250 818Z" /></g></g><g ><g ><path class="shp0" d="M9909 704L10331 704L10331 1412L9909 1412L9909 704Z" /><path fill-rule="evenodd" class="shp1" d="M10038 1101L10038 1297L10329 1297L10329 1411L9909 1411L9909 704L10307 704L10307 818L10038 818L10038 992L10264 992L10264 1101L10038 1101Z" /></g></g><g ><g ><path class="shp0" d="M10436 694L10942 694L10942 1424L10436 1424L10436 694Z" /><path fill-rule="evenodd" class="shp1" d="M10704 808C10686 808 10668 811 10651 816C10634 821 10619 828 10606 838C10593 848 10583 860 10576 874C10569 888 10565 905 10565 923L10565 1191C10565 1231 10579 1261 10605 1279C10632 1297 10665 1307 10705 1307C10741 1307 10773 1302 10804 1292C10835 1282 10862 1267 10885 1246L10941 1342C10906 1373 10869 1394 10832 1405C10793 1416 10751 1422 10705 1422C10667 1422 10632 1417 10599 1407C10566 1398 10538 1383 10514 1364C10490 1345 10471 1321 10457 1292C10443 1263 10436 1229 10436 1191L10436 923C10436 887 10443 855 10458 827C10472 798 10491 774 10515 754C10540 735 10568 720 10600 709C10633 699 10668 694 10704 694C10733 694 10758 696 10780 699C10802 703 10822 709 10840 718C10857 726 10874 736 10890 749C10905 761 10921 776 10938 792L10867 880C10845 859 10821 842 10795 828C10770 815 10740 808 10704 808Z" /></g></g><g ><g ><path class="shp0" d="M11055 704L11605 704L11605 1412L11055 1412L11055 704Z" /><path fill-rule="evenodd" class="shp1" d="M11474 704L11604 704L11604 1411L11474 1411L11474 1125L11184 1125L11184 1411L11055 1411L11055 704L11184 704L11184 1010L11474 1010L11474 704Z" /></g></g><g ><g ><path class="shp0" d="M5117 694L5658 694L5658 1424L5117 1424L5117 694Z" /><path fill-rule="evenodd" class="shp1" d="M5394 1020L5657 1020L5657 1336C5635 1349 5613 1361 5593 1371C5572 1382 5552 1391 5532 1399C5512 1407 5491 1412 5469 1416C5447 1420 5423 1422 5397 1422C5357 1422 5320 1417 5286 1408C5252 1398 5222 1384 5197 1366C5172 1347 5153 1323 5139 1294C5124 1265 5117 1231 5117 1191L5117 923C5117 886 5125 853 5140 824C5155 795 5175 771 5200 752C5225 733 5255 719 5288 709C5322 699 5358 694 5396 694C5442 694 5485 701 5526 715C5566 728 5602 751 5636 782L5577 875C5552 855 5523 839 5491 827C5459 814 5428 808 5396 808C5376 808 5358 810 5339 815C5321 820 5305 827 5291 837C5278 847 5267 859 5259 873C5250 888 5246 905 5246 923L5246 1191C5246 1212 5250 1230 5258 1244C5266 1259 5277 1271 5290 1280C5304 1289 5320 1296 5338 1300C5357 1304 5376 1307 5397 1307C5423 1307 5445 1305 5464 1301C5484 1298 5505 1290 5529 1276L5529 1124L5394 1124L5394 1020Z" /></g></g><g ><g ><path class="shp0" d="M5793 704L6297 704L6297 1412L5793 1412L5793 704Z" /><path fill-rule="evenodd" class="shp1" d="M6027 704C6066 704 6102 709 6135 718C6168 727 6196 741 6220 759C6243 778 6263 802 6276 830C6289 859 6296 893 6296 933L6296 1183C6296 1222 6288 1256 6274 1285C6259 1314 6238 1338 6213 1356C6188 1375 6158 1389 6124 1398C6090 1407 6054 1411 6015 1411L5793 1411L5793 704L6027 704ZM6166 932C6166 912 6162 895 6155 881C6149 866 6139 854 6127 845C6114 835 6099 829 6082 825C6065 820 6046 818 6026 818L5920 818L5920 1297L6015 1297C6035 1297 6054 1295 6072 1291C6090 1287 6107 1280 6120 1271C6134 1261 6145 1249 6153 1235C6162 1221 6166 1203 6166 1182L6166 932Z" /></g></g><g ><g ><path class="shp0" d="M6351 699L6970 699L6970 1412L6351 1412L6351 699Z" /><path fill-rule="evenodd" class="shp1" d="M6742 699L6969 1411L6834 1411L6785 1244L6539 1244L6488 1411L6351 1411L6585 699L6742 699ZM6753 1139L6662 833L6571 1139L6753 1139Z" /></g></g><g ><g ><path class="shp0" d="M7767 694L8305 694L8305 1422L7767 1422L7767 694Z" /><path fill-rule="evenodd" class="shp1" d="M8074 994C8110 1003 8143 1013 8171 1025C8199 1037 8223 1051 8243 1068C8263 1084 8278 1104 8288 1128C8299 1151 8304 1180 8304 1213C8304 1248 8297 1279 8283 1306C8269 1332 8251 1353 8227 1370C8204 1387 8176 1400 8145 1408C8113 1416 8080 1420 8045 1420C8018 1420 7990 1417 7963 1411C7936 1405 7910 1397 7886 1386C7862 1374 7840 1361 7819 1344C7799 1328 7782 1310 7768 1288L7852 1208C7860 1220 7872 1232 7886 1244C7900 1255 7916 1265 7932 1274C7950 1283 7967 1292 7985 1297C8003 1303 8020 1305 8036 1305C8053 1305 8069 1304 8086 1301C8102 1298 8117 1293 8131 1285C8144 1278 8154 1269 8163 1257C8171 1245 8175 1230 8175 1213C8175 1195 8169 1180 8158 1168C8147 1157 8132 1147 8115 1139C8098 1131 8079 1124 8059 1119C8039 1114 8020 1109 8003 1104C7970 1094 7941 1083 7914 1071C7888 1059 7866 1045 7848 1029C7830 1012 7816 993 7807 971C7798 949 7793 923 7793 892C7793 858 7800 828 7813 802C7827 777 7845 756 7868 740C7892 725 7918 713 7950 705C7981 698 8014 694 8050 694C8099 694 8143 702 8181 719C8220 735 8253 755 8282 779L8210 874C8202 867 8192 859 8179 852C8167 844 8153 837 8139 830C8124 824 8109 818 8094 814C8078 810 8063 808 8050 808C8034 808 8018 809 8003 812C7987 815 7974 820 7962 826C7950 833 7941 841 7934 852C7925 863 7922 876 7922 892C7922 908 7926 921 7937 932C7946 943 7958 952 7973 960C7987 968 8003 975 8021 980C8039 985 8057 990 8074 994Z" /></g></g><g ><g ><path class="shp0" d="M8424 705L8990 705L8990 1412L8424 1412L8424 705Z" /><path fill-rule="evenodd" class="shp1" d="M8814 1411L8989 1411L8701 1028L8967 705L8798 705L8595 975L8554 975L8554 705L8424 705L8424 1411L8554 1411L8554 1099L8599 1099L8814 1411Z" /></g></g><g ><g ><path class="shp0" d="M7084 704L7666 704L7666 1412L7084 1412L7084 704Z" /><path fill-rule="evenodd" class="shp1" d="M7551 704L7665 704L7665 1411L7486 1411L7200 853L7200 1411L7085 1411L7085 704L7254 704L7551 1277L7551 704Z" /></g></g><g ><g ><path class="shp0" d="M7359 568L7534 568L7534 742L7359 742L7359 568Z" /><path fill-rule="evenodd" class="shp1" d="M7406 568L7533 568L7435 741L7359 741L7406 568Z" /></g></g><g ><g ><path class="shp0" d="M859 109L1114 109L1114 438L859 438L859 109Z" /><path fill-rule="evenodd" class="shp1" d="M962 302L859 379L902 437L986 375L1082 375L1113 148L897 109L876 225L948 238L956 192L1032 206L1019 302L962 302Z" /></g></g><g ><g ><path class="shp0" d="M3398 109L3653 109L3653 438L3398 438L3398 109Z" /><path fill-rule="evenodd" class="shp1" d="M3526 375L3609 437L3652 379L3550 302L3493 302L3480 206L3556 192L3564 238L3635 225L3614 109L3398 148L3429 375L3526 375Z" /></g></g><g ><g ><path class="shp0" d="M5 0L4507 0L4507 1990L5 1990L5 0Z" /><path fill-rule="evenodd" class="shp1" d="M4392 846L4433 792L4320 708L4222 837L4222 892L4355 992L4355 1196L4296 1273L4168 1177L4168 1414L4297 1414L4410 1575L4205 1989L3834 1989L3834 1917L3921 1740L4023 1740L4063 1659L3834 1659L3834 1287L3758 1230L3464 1380L3464 1580L3534 1679L3467 1812L3365 1812L3313 1917L3560 1917L3687 1662L3624 1574L3624 1414L3762 1414L3762 1486L3696 1486L3696 1550L3771 1655L3605 1989L3233 1989L3233 1917L3320 1740L3423 1740L3450 1685L3392 1603L3392 1336L3692 1182L3570 1091L3570 1159L3145 1252L3038 1221L3038 1602L2255 1902L1472 1602L1472 1150L1369 1180L940 1180L940 1091L818 1182L1118 1336L1118 1603L1060 1685L1087 1740L1190 1740L1277 1917L1277 1989L905 1989L740 1655L814 1550L814 1486L749 1486L749 1414L886 1414L886 1574L823 1662L950 1917L1197 1917L1145 1812L1043 1812L976 1679L1046 1580L1046 1380L753 1230L677 1287L677 1659L448 1659L488 1740L590 1740L677 1917L677 1989L306 1989L101 1575L214 1414L343 1414L343 1177L215 1273L156 1196L156 992L289 892L289 837L191 708L78 792L119 846L176 803L220 860L105 947L5 816L5 757L205 608L361 812L361 928L229 1028L229 1173L477 986L477 839L626 727L584 671L794 514L729 479L543 618L585 674L451 774L407 716L541 616L500 560L659 441L658 440L658 358L459 507L501 563L392 644L349 586L457 505L415 450L658 268L658 184L374 396L416 452L335 513L292 455L373 394L331 339L658 94L658 0L730 0L730 78L844 99L831 170L730 152L730 397L924 503L1014 436L1057 494L994 541L1110 605L1328 497L1383 337L1472 337L1472 200L3038 200L3038 337L3127 337L3182 497L3400 605L3516 541L3453 494L3496 436L3586 503L3781 397L3781 152L3679 170L3666 99L3781 78L3781 0L3853 0L3853 94L4180 339L4138 394L4219 455L4176 513L4095 452L4137 396L3853 184L3853 268L4096 450L4054 505L4162 586L4119 644L4010 563L4052 507L3853 358L3853 440L3852 441L4011 560L3970 616L4104 716L4060 774L3926 674L3968 618L3782 479L3716 514L3927 671L3885 727L4034 839L4034 986L4282 1173L4282 1028L4150 928L4150 812L4306 608L4506 757L4506 816L4406 947L4291 860L4335 803L4392 846ZM4096 1123L3961 1022L3961 875L3819 767L3861 712L3647 552L3396 689L3396 947L3121 1077L3074 941L2966 941L2966 272L1544 272L1544 870L1436 870L1393 996L1114 955L1114 689L863 552L650 712L692 767L549 875L549 1022L415 1123L415 1414L486 1414L486 1486L252 1486L185 1582L351 1917L597 1917L545 1812L443 1812L332 1587L605 1587L605 1251L918 1016L849 925L907 882L1012 1020L1012 1108L1359 1108L1472 1075L1472 1014L1544 1014L1544 1551L2255 1825L2966 1551L2966 1085L3038 1085L3038 1146L3147 1178L3498 1101L3498 1020L3603 882L3661 925L3592 1016L3906 1251L3906 1587L4179 1587L4068 1812L3966 1812L3914 1917L4160 1917L4326 1582L4259 1486L4025 1486L4025 1414L4096 1414L4096 1123ZM1186 893L1188 893L1186 892L1186 893ZM1472 733L1416 733L1201 895L1344 916L1384 798L1472 798L1472 733ZM3094 733L3038 733L3038 868L3126 868L3163 977L3320 903L3094 733ZM3038 409L3038 661L3118 661L3324 815L3324 647L3123 548L3075 409L3038 409ZM1186 647L1186 815L1392 661L1472 661L1472 409L1435 409L1387 548L1186 647Z" /></g></g><g ><g ><path class="shp0" d="M1615 342L2897 342L2897 1751L1615 1751L1615 342Z" /><path fill-rule="evenodd" class="shp1" d="M2896 343L2896 1503L2255 1750L1615 1503L1615 343L2896 343ZM2733 562L2669 606L2685 669L2608 669L2632 606L2589 534L2546 606L2571 669L2494 669L2510 606L2445 562L2459 669L2459 736L2720 736L2720 669L2733 562ZM2701 907L2619 917L2630 835L2550 835L2561 918L2477 907L2477 986L2561 976L2550 1058L2630 1058L2619 976L2701 986L2701 907ZM2701 1230L2619 1240L2630 1158L2550 1158L2561 1241L2477 1230L2477 1309L2561 1299L2550 1381L2630 1381L2619 1299L2701 1309L2701 1230ZM2278 589L2232 589L2232 1387L2278 1387L2278 589ZM2054 1176L1953 1176L1953 1221L1998 1221L1998 1287C1988 1293 1978 1297 1970 1298C1962 1300 1952 1300 1941 1300C1932 1300 1923 1300 1916 1298C1908 1296 1901 1293 1895 1289C1889 1285 1884 1279 1881 1273C1878 1267 1875 1259 1875 1250L1875 1134C1875 1126 1878 1118 1881 1112C1885 1106 1890 1101 1895 1096C1901 1092 1908 1089 1916 1087C1924 1085 1932 1084 1940 1084C1954 1084 1968 1087 1982 1092C1996 1097 2008 1104 2019 1113L2044 1072C2030 1059 2014 1049 1997 1043C1979 1037 1960 1034 1940 1034C1924 1034 1909 1036 1894 1041C1879 1045 1867 1051 1856 1059C1844 1068 1836 1078 1829 1091C1823 1103 1820 1118 1820 1134L1820 1250C1820 1267 1823 1282 1829 1295C1835 1307 1844 1318 1854 1326C1865 1334 1878 1340 1893 1344C1908 1348 1923 1350 1941 1350C1952 1350 1963 1349 1972 1348C1982 1346 1990 1343 1999 1340C2008 1337 2017 1333 2026 1328C2035 1324 2044 1318 2054 1313L2054 1176ZM1846 906L1902 906L1902 793L1960 793C1972 793 1984 791 1996 788C2007 784 2017 780 2025 773C2033 767 2040 758 2045 749C2050 739 2053 728 2053 715L2053 680C2053 667 2050 655 2046 645C2041 635 2035 626 2026 619C2018 612 2008 607 1996 604C1985 600 1972 598 1959 598L1846 598L1846 906ZM1959 743L1902 743L1902 648L1959 648C1970 648 1978 651 1986 656C1993 662 1996 670 1996 680L1996 715C1996 725 1993 732 1985 737C1977 741 1969 743 1959 743Z" /></g></g></g></g></g></g></g></g></svg>